<svg width="64" height="64" viewBox="0 0 6528 6528" xmlns="http://www.w3.org/2000/svg">
<path id="shape_0" d="M 3264 6324 C 3264 6324 4080 6324 4080 6324 C 4080 6324 4488 6528 4488 6528 C 4488 6528 6222 4386 6222 4386 C 6222 4386 5692 4121 5692 4121 C 5692 4121 6120 3876 6120 3876 C 6120 3876 5304 3774 5304 3774 C 5304 3774 3264 6324 3264 6324 Z " style="fill:#000000;stroke:none;fill-opacity:0.4;" />
<path id="shape_1" d="M 1020 3978 C 1020 3978 1020 4998 1020 4998 C 1020 4998 3264 6120 3264 6120 C 3264 6120 5100 4284 5100 4284 C 5100 4284 5100 3672 5100 3672 " style="stroke-width:408;stroke-linejoin:round;stroke-linecap:butt;stroke:#000000;fill:none;" />
<g>
<defs>
<linearGradient id="id1" gradientUnits="userSpaceOnUse" gradientTransform="matrix(-0.172965,-0.039741,0.069978,-0.304564,4027.08,5733.34)" x1="-6528" x2="6528" y1="-6528" y2="-6528">
<stop offset="0%" stop-color="#a3784b" />
<stop offset="100%" stop-color="#76401c" />
</linearGradient>
</defs>
<path id="shape_2" d="M 3264 3876 C 3264 3876 5100 2040 5100 2040 C 5100 2040 5100 4284 5100 4284 C 5100 4284 3264 6120 3264 6120 C 3264 6120 3264 3876 3264 3876 Z " style="fill:url(#id1);stroke:none;" />
</g>
<path id="shape_3" d="M 3264 3876 C 3264 3876 4284 3876 4284 3876 C 4284 3876 3264 4896 3264 4896 C 3264 4896 3264 3876 3264 3876 Z " style="fill:#5d2b0c;stroke:none;" />
<g>
<defs>
<linearGradient id="id2" gradientUnits="userSpaceOnUse" gradientTransform="matrix(-0.113936,0.067255,-0.127083,-0.21529,2963.32,6250.41)" x1="-6528" x2="6528" y1="-6528" y2="-6528">
<stop offset="0%" stop-color="#be8852" />
<stop offset="100%" stop-color="#dca977" />
</linearGradient>
</defs>
<path id="shape_4" d="M 1213 3673 C 1213 3673 1428 4692 1428 4692 C 1428 4692 3264 5610 3264 5610 C 3264 5610 3264 6120 3264 6120 C 3264 6120 1020 4998 1020 4998 C 1020 4998 1020 3671 1020 3671 C 1020 3671 1213 3673 1213 3673 Z " style="fill:url(#id2);stroke:none;" />
</g>
<g>
<defs>
<linearGradient id="id3" gradientUnits="userSpaceOnUse" gradientTransform="matrix(-0.026713,0.081314,-0.296888,-0.097533,3404.5,4947.8)" x1="-6528" x2="6528" y1="-6528" y2="-6528">
<stop offset="0%" stop-color="#7c4e28" />
<stop offset="100%" stop-color="#a17545" />
</linearGradient>
</defs>
<path id="shape_5" d="M 3264 3876 C 3264 3876 3264 5610 3264 5610 C 3264 5610 1428 4692 1428 4692 C 1428 4692 1213 3673 1213 3673 C 1213 3673 3264 3876 3264 3876 Z " style="fill:url(#id3);stroke:none;" />
</g>
<path id="shape_6" d="M 2448 4692 C 2448 4692 204 3570 204 3570 C 204 3570 1020 2754 1020 2754 C 1020 2754 204 2754 204 2754 C 204 2754 2448 1428 2448 1428 C 2448 1428 3060 1428 3060 1428 C 3060 1428 3774 612 3774 612 C 3774 612 5508 1224 5508 1224 C 5508 1224 5100 2346 5100 2346 C 5100 2346 6324 2652 6324 2652 C 6324 2652 4488 4488 4488 4488 C 4488 4488 3264 3876 3264 3876 C 3264 3876 2448 4692 2448 4692 Z " style="stroke-width:408;stroke-linejoin:round;stroke-linecap:butt;stroke:#000000;fill:none;" />
<g>
<defs>
<linearGradient id="id4" gradientUnits="userSpaceOnUse" gradientTransform="matrix(0.084067,0.11561,-0.278017,0.202164,3247.59,2328.18)" x1="-6528" x2="6528" y1="-6528" y2="-6528">
<stop offset="0%" stop-color="#663200" />
<stop offset="100%" stop-color="#834f1c" />
</linearGradient>
</defs>
<path id="shape_7" d="M 1020 2754 C 1020 2754 3060 1428 3060 1428 C 3060 1428 3060 3366 3060 3366 C 3060 3366 2437 3864 2437 3864 C 2437 3864 1020 3161 1020 3161 C 1020 3161 1020 2754 1020 2754 Z " style="fill:url(#id4);stroke:none;" />
</g>
<g>
<defs>
<linearGradient id="id5" gradientUnits="userSpaceOnUse" gradientTransform="matrix(0.147113,0.035612,-0.132344,0.546707,4449.97,760.23)" x1="-6528" x2="6528" y1="-6528" y2="-6528">
<stop offset="0%" stop-color="#e5b07b" />
<stop offset="100%" stop-color="#ffce9e" />
</linearGradient>
</defs>
<path id="shape_8" d="M 3060 1428 C 3060 1428 3468 3060 3468 3060 C 3468 3060 5100 3774 5100 3774 C 5100 3774 5100 2244 5100 2244 C 5100 2244 3060 1428 3060 1428 Z " style="fill:url(#id5);stroke:none;" />
</g>
<path id="shape_9" d="M 3060 1428 C 3060 1428 3468 3060 3468 3060 C 3468 3060 5100 3774 5100 3774 C 5100 3774 4268 3909 4268 3909 C 4268 3909 3060 3366 3060 3366 C 3060 3366 3060 1428 3060 1428 Z " style="fill:#945f2c;stroke:none;" />
<path id="shape_10" d="M 3060 3366 C 3060 3366 2437 3864 2437 3864 C 2437 3864 3264 3876 3264 3876 C 3264 3876 3682 3646 3682 3646 C 3682 3646 3060 3366 3060 3366 Z " style="fill:#85501c;stroke:none;" />
<g>
<defs>
<linearGradient id="id6" gradientUnits="userSpaceOnUse" gradientTransform="matrix(0.137402,-0.014381,0.032531,0.310801,4398.45,468.64)" x1="-6528" x2="6528" y1="-6528" y2="-6528">
<stop offset="0%" stop-color="#fccc9d" />
<stop offset="100%" stop-color="#eeb781" />
</linearGradient>
</defs>
<path id="shape_11" d="M 3774 612 C 3774 612 5508 1224 5508 1224 C 5508 1224 5100 2346 5100 2346 C 5100 2346 3060 1428 3060 1428 C 3060 1428 3774 612 3774 612 Z " style="fill:url(#id6);stroke:none;" />
</g>
<path id="shape_12" d="M 204 2754 C 204 2754 2448 1428 2448 1428 C 2448 1428 3060 1428 3060 1428 C 3060 1428 1020 2754 1020 2754 C 1020 2754 204 2754 204 2754 Z " style="fill:#ffdcba;stroke:none;" />
<path id="shape_13" d="M 1540.55 2840.65 C 1540.55 2840.65 1540.55 3741.06 1540.55 3741.06 C 1540.55 3741.06 2440.96 4191.27 2440.96 4191.27 C 2440.96 4191.27 3003.72 3628.51 3003.72 3628.51 C 3003.72 3628.51 3003.72 2728.1 3003.72 2728.1 C 3003.72 2728.1 2159.58 2390.44 2159.58 2390.44 C 2159.58 2390.44 1540.55 2840.65 1540.55 2840.65 Z " style="stroke-width:225.1;stroke-linejoin:miter;stroke-linecap:butt;stroke:#000000;fill:none;" />
<g>
<defs>
<linearGradient id="id7" gradientUnits="userSpaceOnUse" gradientTransform="matrix(0.033622,-0.043646,0.05648,0.063448,2617.3,4800.26)" x1="-6528" x2="6528" y1="-6528" y2="-6528">
<stop offset="0%" stop-color="#c6d7f5" />
<stop offset="100%" stop-color="#6b94dd" />
</linearGradient>
</defs>
<path id="shape_14" d="M 1540.55 2840.65 C 1540.55 2840.65 1540.55 3741.06 1540.55 3741.06 C 1540.55 3741.06 2440.96 4191.27 2440.96 4191.27 C 2440.96 4191.27 2440.96 3234.58 2440.96 3234.58 C 2440.96 3234.58 1540.55 2840.65 1540.55 2840.65 Z " style="fill:url(#id7);stroke:none;" />
</g>
<path id="shape_15" d="M 2440.96 3234.58 C 2440.96 3234.58 2440.96 4191.27 2440.96 4191.27 C 2440.96 4191.27 3003.72 3628.51 3003.72 3628.51 C 3003.72 3628.51 3003.72 2728.1 3003.72 2728.1 C 3003.72 2728.1 2440.96 3234.58 2440.96 3234.58 Z " style="fill:#003cb0;stroke:none;" />
<path id="shape_16" d="M 2778.62 2896.92 C 2778.62 2896.92 3003.72 3515.95 3003.72 3515.95 C 3003.72 3515.95 3003.72 3009.47 3003.72 3009.47 C 3003.72 3009.47 2778.62 2896.92 2778.62 2896.92 Z " style="fill:#0d2964;stroke:none;" />
<g>
<defs>
<linearGradient id="id8" gradientUnits="userSpaceOnUse" gradientTransform="matrix(0.033622,-0.043646,0.05648,0.063448,3517.72,3674.74)" x1="-6528" x2="6528" y1="-6528" y2="-6528">
<stop offset="0%" stop-color="#c6d7f5" />
<stop offset="100%" stop-color="#6b94dd" />
</linearGradient>
</defs>
<path id="shape_17" d="M 1540.55 2840.65 C 1540.55 2840.65 2440.96 3234.58 2440.96 3234.58 C 2440.96 3234.58 3003.72 2728.1 3003.72 2728.1 C 3003.72 2728.1 2159.59 2390.44 2159.59 2390.44 C 2159.59 2390.44 1540.55 2840.65 1540.55 2840.65 Z " style="fill:url(#id8);stroke:none;" />
</g>
<path id="shape_18" d="M 3116.27 2840.65 C 3116.27 2840.65 3116.27 3741.06 3116.27 3741.06 C 3116.27 3741.06 4016.68 4191.27 4016.68 4191.27 C 4016.68 4191.27 4579.44 3628.51 4579.44 3628.51 C 4579.44 3628.51 4579.44 2728.1 4579.44 2728.1 C 4579.44 2728.1 3735.3 2390.44 3735.3 2390.44 C 3735.3 2390.44 3116.27 2840.65 3116.27 2840.65 Z " style="stroke-width:225.1;stroke-linejoin:miter;stroke-linecap:butt;stroke:#000000;fill:none;" />
<path id="shape_19" d="M 3341.38 3347.13 C 3341.38 3347.13 3340.83 3853.06 3340.83 3853.06 C 3340.83 3853.06 4016.69 4191.27 4016.69 4191.27 C 4016.69 4191.27 4016.69 3234.58 4016.69 3234.58 C 4016.69 3234.58 3739.17 3113.2 3739.17 3113.2 C 3739.17 3113.2 3341.38 3347.13 3341.38 3347.13 Z " style="fill:#ec6666;stroke:none;" />
<path id="shape_20" d="M 3116.27 2840.65 C 3116.27 2840.65 3116.27 3741.06 3116.27 3741.06 C 3116.27 3741.06 3340.83 3853.06 3340.83 3853.06 C 3340.83 3853.06 3341.38 3347.13 3341.38 3347.13 C 3341.38 3347.13 3739.17 3113.2 3739.17 3113.2 C 3739.17 3113.2 3116.27 2840.65 3116.27 2840.65 Z " style="fill:#cd4d4d;stroke:none;" />
<g>
<defs>
<linearGradient id="id9" gradientUnits="userSpaceOnUse" gradientTransform="matrix(0.002909,0.070275,-0.103752,0.045338,5407.13,4750.66)" x1="-6528" x2="6528" y1="-6528" y2="-6528">
<stop offset="0%" stop-color="#a3043c" />
<stop offset="100%" stop-color="#ffdce6" />
</linearGradient>
</defs>
<path id="shape_21" d="M 4016.68 3234.58 C 4016.68 3234.58 4016.68 4191.27 4016.68 4191.27 C 4016.68 4191.27 4579.44 3628.51 4579.44 3628.51 C 4579.44 3628.51 4579.44 2728.1 4579.44 2728.1 C 4579.44 2728.1 4016.68 3234.58 4016.68 3234.58 Z " style="fill:url(#id9);stroke:none;" />
</g>
<path id="shape_22" d="M 3739.17 3113.2 C 3739.17 3113.2 4016.69 3234.58 4016.69 3234.58 C 4016.69 3234.58 4579.44 2728.1 4579.44 2728.1 C 4579.44 2728.1 4297.51 2614.99 4297.51 2614.99 C 4297.51 2614.99 3739.17 3113.2 3739.17 3113.2 Z " style="fill:#ffacac;stroke:none;" />
<g>
<defs>
<linearGradient id="id10" gradientUnits="userSpaceOnUse" gradientTransform="matrix(-0.226709,0.285209,-0.431899,-0.34331,4942.15,3357.94)" x1="-6528" x2="6528" y1="-6528" y2="-6528">
<stop offset="0%" stop-color="#c13e3e" />
<stop offset="100%" stop-color="#e27a7a" />
</linearGradient>
</defs>
<path id="shape_23" d="M 3116.27 2840.65 C 3116.27 2840.65 3739.17 3113.2 3739.17 3113.2 C 3739.17 3113.2 4297.51 2614.99 4297.51 2614.99 C 4297.51 2614.99 3735.31 2390.44 3735.31 2390.44 C 3735.31 2390.44 3116.27 2840.65 3116.27 2840.65 Z " style="fill:url(#id10);stroke:none;" />
</g>
<path id="shape_24" d="M 2440.96 1715.13 C 2440.96 1715.13 2440.96 2615.54 2440.96 2615.54 C 2440.96 2615.54 3341.38 3065.75 3341.38 3065.75 C 3341.38 3065.75 3904.13 2502.99 3904.13 2502.99 C 3904.13 2502.99 3904.13 1602.58 3904.13 1602.58 C 3904.13 1602.58 3060 1264.92 3060 1264.92 C 3060 1264.92 2440.96 1715.13 2440.96 1715.13 Z " style="stroke-width:225.1;stroke-linejoin:miter;stroke-linecap:butt;stroke:#000000;fill:none;" />
<g>
<defs>
<linearGradient id="id11" gradientUnits="userSpaceOnUse" gradientTransform="matrix(0.109278,-0.106734,0.211111,0.216141,2401.29,1555.18)" x1="-6528" x2="6528" y1="-6528" y2="-6528">
<stop offset="0%" stop-color="#ffec4b" />
<stop offset="100%" stop-color="#f0a506" />
</linearGradient>
</defs>
<path id="shape_25" d="M 2440.96 1715.13 C 2440.96 1715.13 2440.96 2615.54 2440.96 2615.54 C 2440.96 2615.54 3341.38 3065.75 3341.38 3065.75 C 3341.38 3065.75 3341.38 2109.06 3341.38 2109.06 C 3341.38 2109.06 2440.96 1715.13 2440.96 1715.13 Z " style="fill:url(#id11);stroke:none;" />
</g>
<g>
<defs>
<linearGradient id="id12" gradientUnits="userSpaceOnUse" gradientTransform="matrix(0.109952,0.058933,-0.088431,0.164986,3285.39,1105.24)" x1="-6528" x2="6528" y1="-6528" y2="-6528">
<stop offset="0%" stop-color="#ffffff" />
<stop offset="100%" stop-color="#fff289" />
</linearGradient>
</defs>
<path id="shape_26" d="M 2440.96 1715.13 C 2440.96 1715.13 3341.38 2109.06 3341.38 2109.06 C 3341.38 2109.06 3904.13 1602.58 3904.13 1602.58 C 3904.13 1602.58 3060 1264.92 3060 1264.92 C 3060 1264.92 2440.96 1715.13 2440.96 1715.13 Z " style="fill:url(#id12);stroke:none;" />
</g>
<g>
<defs>
<linearGradient id="id13" gradientUnits="userSpaceOnUse" gradientTransform="matrix(0.072959,0.055968,-0.127927,0.166764,4052.6,1843.63)" x1="-6528" x2="6528" y1="-6528" y2="-6528">
<stop offset="0%" stop-color="#f99b05" />
<stop offset="100%" stop-color="#fcb23d" />
</linearGradient>
</defs>
<path id="shape_27" d="M 3341.38 2109.06 C 3341.38 2109.06 3341.38 3065.75 3341.38 3065.75 C 3341.38 3065.75 3904.13 2502.99 3904.13 2502.99 C 3904.13 2502.99 3904.13 1602.58 3904.13 1602.58 C 3904.13 1602.58 3341.38 2109.06 3341.38 2109.06 Z " style="fill:url(#id13);stroke:none;" />
</g>
<g>
<defs>
<linearGradient id="id14" gradientUnits="userSpaceOnUse" gradientTransform="matrix(0.148765,0.073931,-0.091547,0.184213,4805.18,2782.55)" x1="-6528" x2="6528" y1="-6528" y2="-6528">
<stop offset="0%" stop-color="#ffd5ac" />
<stop offset="100%" stop-color="#b07842" />
</linearGradient>
</defs>
<path id="shape_28" d="M 3264 3876 C 3264 3876 5100 2346 5100 2346 C 5100 2346 6324 2652 6324 2652 C 6324 2652 4488 4488 4488 4488 C 4488 4488 3264 3876 3264 3876 Z " style="fill:url(#id14);stroke:none;" />
</g>
<g>
<defs>
<linearGradient id="id15" gradientUnits="userSpaceOnUse" gradientTransform="matrix(0.341167,0.042053,-0.072636,0.589287,1877.5,2121.29)" x1="-6528" x2="6528" y1="-6528" y2="-6528">
<stop offset="0%" stop-color="#ffe3c7" />
<stop offset="100%" stop-color="#f3b476" />
</linearGradient>
</defs>
<path id="shape_29" d="M 204 3570 C 204 3570 2448 4692 2448 4692 C 2448 4692 3264 3876 3264 3876 C 3264 3876 1020 2754 1020 2754 C 1020 2754 204 3570 204 3570 Z " style="fill:url(#id15);stroke:none;" />
</g>
</svg>