<svg width="64" height="64" viewBox="0 0 6528 6528" xmlns="http://www.w3.org/2000/svg">
<path id="shape_0" d="M 1938 5916 C 1938 5916 2958 5814 2958 5814 C 2958 5814 3468 6528 3468 6528 C 3468 6528 4386 6630 5100 6324 C 5814 6018 6657 5299 6528 4590 C 6324 3468 5100 4080 5100 4080 C 5100 4080 3876 4080 3876 4080 C 3876 4080 3876 4488 3876 4488 C 3876 4488 4488 4488 4488 4488 C 4488 4488 3570 5304 3570 5304 C 3570 5304 2448 5304 2448 5304 C 2448 5304 1938 5916 1938 5916 Z " style="fill:#000000;stroke:none;fill-opacity:0.41;" />
<path id="shape_1" d="M 2040 1632 C 1632 2244 1734 2754 1734 3162 C 1734 3570 1836 3672 1836 3672 C 1836 3672 1836 5100 1836 5100 C 1836 5100 1020 5712 2040 5712 C 2856 5712 2448 3876 2448 3876 C 2448 3876 3672 4386 3672 4386 C 3672 4386 3570 5508 3570 5508 C 3570 5508 2550 6426 3978 6426 C 4794 6426 4182 3570 4182 3570 C 4182 3570 4080 3060 4080 3060 C 4080 3060 4488 3468 4692 3468 C 4896 3468 5100 3468 5100 3468 C 5100 3468 5304 4080 5304 4080 C 5304 4080 4488 4692 5712 4692 C 6528 4692 5508 3060 5508 3060 C 5508 3060 5304 3060 5304 3060 C 5304 3060 5304 2448 5304 2040 C 5304 1714 5174 1204 4708 825 C 5916 1632 5916 204 5916 204 C 5916 204 5304 1020 4284 612 C 3685 372 2448 1020 2040 1632 Z " style="stroke-width:408;stroke-linejoin:round;stroke-linecap:butt;stroke:#000000;fill:none;" />
<g>
<defs>
<radialGradient id="id1" gradientUnits="userSpaceOnUse" gradientTransform="matrix(0.703121,0,0,0.749996,1938,1326)" cx="0" cy="0" r="6528">
<stop offset="0%" stop-color="#dda771" />
<stop offset="99.61%" stop-color="#a97644" />
</radialGradient>
</defs>
</g>
<g>
<defs>
<linearGradient id="id2" gradientUnits="userSpaceOnUse" gradientTransform="matrix(0.252632,0.056386,-0.115725,0.51849,3599.6,2438.69)" x1="-6528" x2="6528" y1="-6528" y2="-6528">
<stop offset="0%" stop-color="#875b2f" />
<stop offset="76.86%" stop-color="#a97644" />
<stop offset="100%" stop-color="#c58a50" />
</linearGradient>
</defs>
<path id="shape_3" d="M 3774 1734 C 3774 1734 1938 2856 1938 2856 C 1938 2856 1836 3366 1836 3366 C 1836 3366 2040 3774 2346 3876 C 2619 3967 2958 4080 2958 4080 C 2958 4080 3672 4386 3672 4386 C 3672 4386 3570 5508 3570 5508 C 3570 5508 2550 6324 3978 6324 C 4794 6324 4080 2856 4080 2856 C 4080 2856 4386 2856 4386 2652 C 4386 2448 4216 2010 3774 1734 Z " style="fill:url(#id2);stroke:none;" />
</g>
<g>
<defs>
<radialGradient id="id3" gradientUnits="userSpaceOnUse" gradientTransform="matrix(0.703121,0,0,0.749996,1938,1326)" cx="0" cy="0" r="6528">
<stop offset="0%" stop-color="#dda771" />
<stop offset="99.61%" stop-color="#a97644" />
</radialGradient>
</defs>
<path id="shape_4" d="M 4080 3060 C 4080 3060 4401 3156 4692 3060 C 4998 2958 5100 2244 5100 2040 C 5100 1428 4708 825 4708 825 C 4708 825 4182 612 3774 714 C 2958 918 2142 1938 2142 1938 C 2142 1938 3264 1734 3264 1734 C 3672 2244 3784 2469 3876 2652 C 3978 2856 3978 2958 3978 2958 C 3978 2958 4080 3060 4080 3060 Z " style="fill:url(#id3);stroke:none;" />
</g>
<path id="shape_5" d="M 1836 3672 C 1836 3672 1836 5100 1836 5100 C 1836 5100 1020 5712 2040 5712 C 2856 5712 2448 3876 2448 3876 C 2448 3876 2346 3672 2142 3468 C 1938 3264 1632 3162 1632 3162 C 1632 3162 1836 3672 1836 3672 Z " style="fill:#d7a26e;stroke:none;" />
<g>
<defs>
<linearGradient id="id4" gradientUnits="userSpaceOnUse" gradientTransform="matrix(0.172776,0.022254,-0.065869,0.511398,5020.09,1956.28)" x1="-6528" x2="6528" y1="-6528" y2="-6528">
<stop offset="0%" stop-color="#c28d59" />
<stop offset="86.27%" stop-color="#a26c38" />
<stop offset="100%" stop-color="#b6783b" />
</linearGradient>
</defs>
<path id="shape_6" d="M 5100 2040 C 5100 2244 4998 2958 4692 3060 C 4401 3156 4080 3060 4080 3060 C 4080 3060 4488 3468 4692 3468 C 4896 3468 5100 3468 5100 3468 C 5100 3468 5304 4080 5304 4080 C 5304 4080 4488 4692 5712 4692 C 6528 4692 5508 3060 5508 3060 C 5508 3060 5304 3060 5304 3060 C 5304 3060 5304 2448 5304 2040 C 5304 1714 5174 1204 4708 825 C 4708 825 5100 1428 5100 2040 Z " style="fill:url(#id4);stroke:none;" />
</g>
<g>
<defs>
<linearGradient id="id5" gradientUnits="userSpaceOnUse" gradientTransform="matrix(0.164234,-0.040104,0.070423,0.288401,3473.08,30.18)" x1="-6528" x2="6528" y1="-6528" y2="-6528">
<stop offset="0%" stop-color="#f4c597" />
<stop offset="100%" stop-color="#daa470" />
</linearGradient>
</defs>
<path id="shape_7" d="M 2040 1632 C 2040 1632 2142 2040 2142 2040 C 2142 2040 2958 917 3774 714 C 4182 612 4708 825 4708 825 C 4708 825 4284 612 4284 612 C 3685 372 2448 1020 2040 1632 Z " style="fill:url(#id5);stroke:none;" />
</g>
<path id="shape_8" d="M 5916 204 C 5916 204 5304 1020 4284 612 C 4284 612 4488 714 4488 714 C 5814 1224 5916 204 5916 204 Z " style="fill:#daa470;stroke:none;" />
<g>
<defs>
<linearGradient id="id6" gradientUnits="userSpaceOnUse" gradientTransform="matrix(0.172776,0.022254,-0.065869,0.511398,5020.09,1956.28)" x1="-6528" x2="6528" y1="-6528" y2="-6528">
<stop offset="0%" stop-color="#c28d59" />
<stop offset="86.27%" stop-color="#a26c38" />
<stop offset="100%" stop-color="#b6783b" />
</linearGradient>
</defs>
<path id="shape_9" d="M 4708 825 C 5916 1632 5916 204 5916 204 C 5916 204 5814 1224 4490 715 C 4490 715 4708 825 4708 825 Z " style="fill:url(#id6);stroke:none;" />
</g>
<path id="shape_10" d="M 1632 612 C 1632 612 1326 408 816 612 C 280 826 204 1428 204 1428 C 204 1428 1224 1224 1224 1224 C 1224 1224 1632 612 1632 612 Z " style="stroke-width:408;stroke-linejoin:round;stroke-linecap:butt;stroke:#000000;fill:none;" />
<path id="shape_11" d="M 1632 612 C 1632 612 1326 408 816 612 C 280 826 204 1428 204 1428 C 204 1428 1224 1224 1224 1224 C 1224 1224 1632 612 1632 612 Z " style="fill:#f8cca1;stroke:none;" />
<path id="shape_12" d="M 619.85 4590 C 619.85 4590 3056.07 5712 3056.07 5712 C 3056.07 5712 3056.07 3876 3056.07 3876 C 3056.07 3876 1679.07 3366 1679.07 3366 C 1679.07 3366 1679.07 2958 1679.07 2958 C 1679.07 2958 619.85 2550 619.85 2550 C 619.85 2550 619.85 4590 619.85 4590 Z " style="stroke-width:423.69;stroke-linejoin:miter;stroke-linecap:butt;stroke:#000000;fill:none;" />
<g>
<defs>
<linearGradient id="id7" gradientUnits="userSpaceOnUse" gradientTransform="matrix(0.171325,0.160179,-0.189623,0.167616,3051.67,3880.51)" x1="-6528" x2="6528" y1="-6528" y2="-6528">
<stop offset="0%" stop-color="#ededed" />
<stop offset="100%" stop-color="#a5a5a5" />
</linearGradient>
</defs>
<path id="shape_13" d="M 616.25 2958 C 616.25 2958 616.25 4590 616.25 4590 C 616.25 4590 2953.74 5712 2953.74 5712 C 2953.74 5712 2953.74 3876 2953.74 3876 C 2953.74 3876 616.25 2958 616.25 2958 Z " style="fill:url(#id7);stroke:none;" />
</g>
<path id="shape_14" d="M 2528.74 5100 C 2528.74 5100 1041.25 4386 1041.25 4386 C 1041.25 4386 828.75 4488 828.75 4488 C 828.75 4488 2741.24 5406 2741.24 5406 C 2741.24 5406 2741.24 3978 2741.24 3978 C 2741.24 3978 2528.74 4080 2528.74 4080 C 2528.74 4080 2528.74 5100 2528.74 5100 Z " style="fill:#ffffff;stroke:none;" />
<g>
<defs>
<linearGradient id="id8" gradientUnits="userSpaceOnUse" gradientTransform="matrix(0.008787,0.111055,-0.426482,0.027887,2896.51,3706.79)" x1="-6528" x2="6528" y1="-6528" y2="-6528">
<stop offset="0%" stop-color="#919191" />
<stop offset="100%" stop-color="#b5b5b5" />
</linearGradient>
</defs>
<path id="shape_15" d="M 828.75 3162 C 828.75 3162 828.75 4488 828.75 4488 C 828.75 4488 1041.25 4386 1041.25 4386 C 1041.25 4386 1041.25 3468 1041.25 3468 C 1041.25 3468 2528.74 4080 2528.74 4080 C 2528.74 4080 2741.24 3978 2741.24 3978 C 2741.24 3978 828.75 3162 828.75 3162 Z " style="fill:url(#id8);stroke:none;" />
</g>
<g>
<defs>
<linearGradient id="id9" gradientUnits="userSpaceOnUse" gradientTransform="matrix(0.014082,0.096508,-0.168629,0.022677,1827.91,2995.84)" x1="-6528" x2="6528" y1="-6528" y2="-6528">
<stop offset="0%" stop-color="#ffea00" />
<stop offset="100%" stop-color="#ffb830" />
</linearGradient>
</defs>
<path id="shape_16" d="M 616.25 2550 C 616.25 2550 616.25 2958 616.25 2958 C 616.25 2958 1678.75 3366 1678.75 3366 C 1678.75 3366 1678.75 2958 1678.75 2958 C 1678.75 2958 616.25 2550 616.25 2550 Z " style="fill:url(#id9);stroke:none;" />
</g>
<g>
<defs>
<linearGradient id="id10" gradientUnits="userSpaceOnUse" gradientTransform="matrix(0.119202,0.248237,-0.677,0.299606,4372.99,3292.59)" x1="-6528" x2="6528" y1="-6528" y2="-6528">
<stop offset="0%" stop-color="#ffffff" />
<stop offset="100%" stop-color="#e9e9e9" />
</linearGradient>
</defs>
<path id="shape_17" d="M 1041.25 3570 C 1041.25 3570 1041.25 4386 1041.25 4386 C 1041.25 4386 2528.74 5100 2528.74 5100 C 2528.74 5100 2528.74 4182 2528.74 4182 C 2528.74 4182 1041.25 3570 1041.25 3570 Z " style="fill:url(#id10);stroke:none;" />
</g>
<path id="shape_18" d="M 2865 1275 C 2923 1438 2926 1624 2856 1836 C 2780 2063 2590 2278 2351 2451 C 2351 2451 2244 1734 2142 1530 C 2142 1530 2865 1275 2865 1275 Z M 2040 612 C 2440 745 2754 966 2865 1275 C 2865 1275 2142 1530 2142 1530 C 2244 1734 2351 2451 2351 2451 C 2015 2694 1581 2856 1224 2856 C 612 2856 455 2461 612 1836 C 816 1020 1174 323 2040 612 Z " style="stroke-width:408;stroke-linejoin:round;stroke-linecap:butt;stroke:#000000;fill:none;" />
<g>
<defs>
<radialGradient id="id11" gradientUnits="userSpaceOnUse" gradientTransform="matrix(0.204729,0.139397,-0.309387,0.454393,912.16,729.01)" cx="0" cy="0" r="6528">
<stop offset="0%" stop-color="#fdd6ab" />
<stop offset="100%" stop-color="#c48b54" />
</radialGradient>
</defs>
<path id="shape_19" d="M 2040 612 C 2440 745 2754 966 2865 1275 C 2865 1275 2142 1530 2142 1530 C 2244 1734 2351 2451 2351 2451 C 2015 2694 1581 2856 1224 2856 C 612 2856 455 2461 612 1836 C 816 1020 1174 323 2040 612 Z " style="fill:url(#id11);stroke:none;" />
</g>
<path id="shape_20" d="M 2690.25 2448 C 2690.25 2448 2269.5 2856 2269.5 2856 C 2269.5 2856 1989 3162 1848.75 3162 C 1708.5 3162 1785.5 3014 1708.5 2958 C 1568.25 2856 1428 2856 1428 2856 C 1428 2856 1568.25 2754 1568.25 2754 C 1568.25 2754 1848.75 2448 1848.75 2448 C 1848.75 2448 2409.75 2448 2409.75 2448 C 2409.75 2448 2933.63 2128 2970.75 2142 C 3029.87 2163 2690.25 2448 2690.25 2448 Z " style="fill:#000000;stroke:none;" />
<g>
<defs>
<radialGradient id="id12" gradientUnits="userSpaceOnUse" gradientTransform="matrix(0.03974,0.291373,-0.38989,0.789621,2643.32,-1011.08)" cx="0" cy="0" r="6528">
<stop offset="0%" stop-color="#fdd6ab" />
<stop offset="100%" stop-color="#c48b54" />
</radialGradient>
</defs>
<path id="shape_21" d="M 1754.27 2973.72 C 1855.44 2596.44 2227.84 2302.79 2227.84 2302.79 C 2227.84 2302.79 2558.38 1946.19 2444.81 2369.7 C 2343.64 2746.98 1876.05 3011.27 1754.27 2973.72 " style="fill:url(#id12);stroke:none;" />
</g>
<path id="shape_22" d="M 2865 1274.96 C 2923 1452.1 2926 1654.23 2856 1884.61 C 2780 2131.3 2590 2364.94 2351 2552.94 C 2351 2552.94 2244 1773.77 2142 1552.08 C 2142 1552.08 2865 1274.96 2865 1274.96 Z " style="fill:#99632d;stroke:none;" />
<path id="shape_23" d="M 2040 1428 C 2040 1428 2244 1632 2448 1836 C 2555 1943 3060 2448 3060 2448 C 3060 2448 3366 2040 3264 1632 C 3140 1137 2448 816 2448 816 C 2448 816 3367 1028 3468 1632 C 3570 2244 3162 2652 3162 2652 C 3162 2652 2652 2244 2448 2040 C 2244 1836 2040 1428 2040 1428 Z " style="fill:#000000;stroke:none;" />
<g>
<defs>
<linearGradient id="id13" gradientUnits="userSpaceOnUse" gradientTransform="matrix(0.073294,0.073294,-0.09858,0.09858,2898.57,916.89)" x1="-6528" x2="6528" y1="-6528" y2="-6528">
<stop offset="0%" stop-color="#d4975b" />
<stop offset="100%" stop-color="#a06f40" />
</linearGradient>
</defs>
<path id="shape_24" d="M 2040 1428 C 2040 1428 2448 816 2448 816 C 2448 816 3140 1137 3264 1632 C 3366 2040 3060 2448 3060 2448 C 3060 2448 2652 2040 2448 1836 C 2244 1632 2040 1428 2040 1428 Z " style="fill:url(#id13);stroke:none;" />
</g>
<path id="shape_25" d="M 1008.18 2401.57 C 1008.18 2401.57 1256.31 2460.34 1256.31 2460.34 C 1256.31 2460.34 1236.72 2543.05 1236.72 2543.05 C 1236.72 2543.05 929.82 2732.42 929.82 2732.42 C 929.82 2732.42 740.45 2425.51 740.45 2425.51 C 740.45 2425.51 760.04 2342.8 760.04 2342.8 C 760.04 2342.8 1008.18 2401.57 1008.18 2401.57 Z " style="fill:#000000;stroke:none;" />
<path id="shape_26" d="M 918 1428 C 816 1428 714 1530 714 1632 C 714 1734 816 1836 918 1836 C 1020 1836 1122 1734 1122 1632 C 1122 1530 1020 1428 918 1428 Z M 1632 1632 C 1519 1632 1428 1723 1428 1836 C 1428 1948 1519 2040 1632 2040 C 1744 2040 1836 1948 1836 1836 C 1836 1723 1744 1632 1632 1632 Z " style="fill:#000000;stroke:none;" />
</svg>