<?xml version="1.0" encoding="UTF-8"?><svg id="i696331265" width="64" height="64" viewBox="0 0 6528 6528" xmlns="http://www.w3.org/2000/svg"><path d="M 4029 4080 C 2704.19 4080 1632 4604.69 1632 5253 C 1632 5900.59 2704.19 6426 4029 6426 C 5352.34 6426 6426 5900.59 6426 5253 C 6426 4604.69 5352.34 4080 4029 4080 Z" style="stroke-width:0;stroke-linejoin:miter;stroke-linecap:butt;fill:#000000;stroke:none;fill-opacity:0.39;"/><path d="M 3417 3989.32 C 2389.72 3989.32 1558.34 4463.32 1558.34 5048.99 C 1558.34 5634.01 2389.72 6108.65 3417 6108.65 C 4443.13 6108.65 5275.66 5634.01 5275.66 5048.99 C 5275.66 4463.32 4443.13 3989.32 3417 3989.32 Z" style="stroke-width:464.67;stroke-linejoin:miter;stroke-linecap:butt;stroke:#000000;fill:none;"/><g><linearGradient id="i696331265-2-g" gradientUnits="userSpaceOnUse" gradientTransform="matrix(0.013282,0.099862,-0.184001,0.007209,8768.73,4079.66)" x1="-6528" x2="6528" y1="-6528" y2="-6528"><stop offset="0%" stop-color="#919191"/><stop offset="100%" stop-color="#b5b5b5"/></linearGradient><path d="M 3408.05 3989.32 C 2385.72 3989.32 1558.33 4438.36 1558.33 4993.21 C 1558.33 5547.44 2385.72 5997.09 3408.05 5997.09 C 4429.25 5997.09 5257.77 5547.44 5257.77 4993.21 C 5257.77 4438.36 4429.25 3989.32 3408.05 3989.32 Z" style="stroke-width:0;stroke-linejoin:miter;stroke-linecap:butt;fill:url(#i696331265-2-g);stroke:none;"/></g><path d="M 612 612 L 1122 408 2142 714 4590 714 5916 1122 5916 3060 4998 4896 4692 5610 4284 5916 612 4182 Z" style="stroke-width:306;stroke-linejoin:miter;stroke-linecap:butt;stroke:#000000;fill:none;"/><g><linearGradient id="i696331265-4-g" gradientUnits="userSpaceOnUse" gradientTransform="matrix(0.232547,-0.374577,0.332112,0.253472,2487.86,3322.23)" x1="-6528" x2="6528" y1="-6528" y2="-6528"><stop offset="0%" stop-color="#000000"/><stop offset="58.43%" stop-color="#010101"/><stop offset="73.33%" stop-color="#656565"/><stop offset="100%" stop-color="#dbdbdb"/></linearGradient><path d="M 630.54 4103.24 C 1817.45 4678.99 2891.99 5253.52 4079.98 5830.48 C 4079.98 4555.61 4191.25 3279.54 4191.25 2005.88 C 4191.25 2005.88 630.54 895.52 630.54 895.52 C 630.54 2169.17 630.54 2828.38 630.54 4103.24 C 630.54 4103.24 630.54 4103.24 630.54 4103.24 C 630.54 4103.24 630.54 4103.24 630.54 4103.24 Z" style="stroke-width:445.09;stroke-linejoin:miter;stroke-linecap:butt;stroke:url(#i696331265-4-g);fill:none;"/></g><g><linearGradient id="i696331265-5-g" gradientUnits="userSpaceOnUse" gradientTransform="matrix(0.248436,0.283204,-0.255425,0.275455,4374.84,2459.89)" x1="-6528" x2="6528" y1="-6528" y2="-6528"><stop offset="0%" stop-color="#ededed"/><stop offset="100%" stop-color="#a5a5a5"/></linearGradient><path d="M 630.54 895.52 C 630.54 1964.76 630.54 3032.79 630.54 4103.24 C 1817.45 4678.99 3003.26 5253.52 4191.25 5830.48 C 4191.25 4555.61 4191.25 3279.54 4191.25 2005.88 C 3003.26 1635.76 1817.45 1265.64 630.54 895.52 C 630.54 895.52 1817.45 895.52 630.54 895.52 C 630.54 895.52 630.54 895.52 630.54 895.52 Z" style="stroke-width:0;stroke-linejoin:miter;stroke-linecap:butt;fill:url(#i696331265-5-g);stroke:none;"/></g><path d="M 3746.16 5090.23 C 2855.99 4678.99 1965.81 4266.53 1075.63 3856.49 C 1001.45 3896.41 926.18 3938.74 853.09 3979.87 C 1890.54 4473.36 2930.17 4966.86 3968.71 5460.36 C 3968.71 4389.9 3968.71 3321.87 3968.71 2252.63 C 3893.44 2333.67 3820.35 2417.13 3746.16 2499.38 C 3746.16 3363 3746.16 4226.62 3746.16 5090.23 C 3746.16 5090.23 3746.16 5090.23 3746.16 5090.23 C 3746.16 5090.23 3746.16 5090.23 3746.16 5090.23 Z" style="stroke-width:0;stroke-linejoin:miter;stroke-linecap:butt;fill:#ffffff;stroke:none;"/><g><linearGradient id="i696331265-7-g" gradientUnits="userSpaceOnUse" gradientTransform="matrix(0.012784,0.196362,-0.177101,0.014174,6902.92,2060.16)" x1="-6528" x2="6528" y1="-6528" y2="-6528"><stop offset="0%" stop-color="#919191"/><stop offset="100%" stop-color="#b5b5b5"/></linearGradient><path d="M 853.09 1265.64 C 853.09 2170.38 853.09 3073.92 853.09 3979.87 C 926.18 3938.74 1001.45 3896.41 1075.63 3856.49 C 1075.63 3116.25 1075.63 2376.01 1075.63 1635.76 C 1965.81 1923.63 2855.99 2210.3 3746.16 2499.38 C 3820.35 2417.13 3893.44 2333.67 3968.71 2252.63 C 2930.17 1923.63 1890.54 1594.64 853.09 1265.64 C 853.09 1265.64 1890.54 1265.64 853.09 1265.64 C 853.09 1265.64 853.09 1265.64 853.09 1265.64 Z" style="stroke-width:0;stroke-linejoin:miter;stroke-linecap:butt;fill:url(#i696331265-7-g);stroke:none;"/></g><g><linearGradient id="i696331265-8-g" gradientUnits="userSpaceOnUse" gradientTransform="matrix(0.190993,0.484857,-0.437298,0.211765,9834.95,-218.55)" x1="-6528" x2="6528" y1="-6528" y2="-6528"><stop offset="0%" stop-color="#6d6d6d"/><stop offset="100%" stop-color="#010101"/></linearGradient><path d="M 1075.63 1389.01 C 1075.63 1389.01 964.36 2228.44 964.36 2869.5 C 964.36 3320.66 1075.63 3549.27 1075.63 3856.49 C 1075.63 3856.49 1516.36 4268.95 2188.35 4596.74 C 2906.17 4946.3 3857.44 5213.61 3857.44 5213.61 C 3857.44 4758.82 3857.44 4252.02 3857.44 3733.12 C 3857.44 3265.02 3857.44 2784.83 3857.44 2376.01 C 3857.44 2376.01 3115.62 2131.68 2410.9 1882.51 C 1724.72 1638.18 1075.63 1389.01 1075.63 1389.01 Z" style="stroke-width:0;stroke-linejoin:miter;stroke-linecap:butt;fill:url(#i696331265-8-g);stroke:none;"/></g><path d="M 714 612 L 1122 510 4794 1632 4386 1836 Z" style="stroke-width:0;stroke-linejoin:miter;stroke-linecap:butt;fill:#ffffff;stroke:none;"/><g><linearGradient id="i696331265-10-g" gradientUnits="userSpaceOnUse" gradientTransform="matrix(0.025151,0.326204,-0.436131,0.033626,7029.58,1469.11)" x1="-6528" x2="6528" y1="-6528" y2="-6528"><stop offset="0%" stop-color="#868686"/><stop offset="100%" stop-color="#353535"/></linearGradient><path d="M 4284 5916 L 4386 1938 4692 1632 4692 5508 Z" style="stroke-width:0;stroke-linejoin:miter;stroke-linecap:butt;fill:url(#i696331265-10-g);stroke:none;"/></g><g><linearGradient id="i696331265-11-g" gradientUnits="userSpaceOnUse" gradientTransform="matrix(0.227734,0.23414,-0.23414,0.227734,5676.29,2109.35)" x1="-6528" x2="6528" y1="-6528" y2="-6528"><stop offset="0%" stop-color="#ededed"/><stop offset="100%" stop-color="#a5a5a5"/></linearGradient><path d="M 1938 816 L 4488 816 5814 1224 4692 1734 Z" style="stroke-width:0;stroke-linejoin:miter;stroke-linecap:butt;fill:url(#i696331265-11-g);stroke:none;"/></g><g><linearGradient id="i696331265-12-g" gradientUnits="userSpaceOnUse" gradientTransform="matrix(0.007636,0.437357,-0.437357,0.007636,6655.1,2362.34)" x1="-6528" x2="6528" y1="-6528" y2="-6528"><stop offset="0%" stop-color="#868686"/><stop offset="100%" stop-color="#353535"/></linearGradient><path d="M 4692 5304 L 5814 3060 5814 1224 4692 1734 Z" style="stroke-width:0;stroke-linejoin:miter;stroke-linecap:butt;fill:url(#i696331265-12-g);stroke:none;"/></g><g><linearGradient id="i696331265-13-g" gradientUnits="userSpaceOnUse" gradientTransform="matrix(0.292162,0.209264,-0.209264,0.292162,2024.41,2902.33)" x1="-6528" x2="6528" y1="-6528" y2="-6528"><stop offset="0%" stop-color="#25b204" stop-opacity="0.96"/><stop offset="100%" stop-color="#177203" stop-opacity="0.96"/></linearGradient><path d="M 1224 1836 C 1224 1836 1838 2152 2346 2346 C 2906 2559 3570 2754 3570 2754" style="stroke-width:204;stroke-linejoin:bevel;stroke-linecap:round;stroke:url(#i696331265-13-g);fill:none;"/></g><g><linearGradient id="i696331265-14-g" gradientUnits="userSpaceOnUse" gradientTransform="matrix(0.144477,0.132105,-0.103483,0.184438,1596.19,3291.72)" x1="-6528" x2="6528" y1="-6528" y2="-6528"><stop offset="0%" stop-color="#25b204" stop-opacity="0.96"/><stop offset="100%" stop-color="#177203" stop-opacity="0.96"/></linearGradient><path d="M 1200.38 2618.56 C 1200.38 2618.56 1504.01 2818.05 1755.22 2940.52 C 2032.14 3074.98 2360.5 3198.08 2360.5 3198.08" style="stroke-width:151.32;stroke-linejoin:round;stroke-linecap:round;stroke:url(#i696331265-14-g);fill:none;"/></g><g><linearGradient id="i696331265-15-g" gradientUnits="userSpaceOnUse" gradientTransform="matrix(0.121198,0.055705,-0.05476,0.123291,2459.41,3040.05)" x1="-6528" x2="6528" y1="-6528" y2="-6528"><stop offset="0%" stop-color="#25b204" stop-opacity="0.96"/><stop offset="100%" stop-color="#135c02" stop-opacity="0.96"/></linearGradient><path d="M 2619.65 3297.9 C 2619.65 3297.9 2846.87 3416.86 3034.87 3489.9 C 3242.11 3570.08 3487.84 3643.49 3487.84 3643.49" style="stroke-width:150.99;stroke-linejoin:round;stroke-linecap:round;stroke:url(#i696331265-15-g);fill:none;"/></g><g><linearGradient id="i696331265-16-g" gradientUnits="userSpaceOnUse" gradientTransform="matrix(0.218319,0.170685,-0.156373,0.2383,1810.3,3097.03)" x1="-6528" x2="6528" y1="-6528" y2="-6528"><stop offset="0%" stop-color="#25b204" stop-opacity="0.96"/><stop offset="100%" stop-color="#177203" stop-opacity="0.96"/></linearGradient><path d="M 1212.19 2227.28 C 1212.19 2227.28 1671 2485.02 2050.61 2643.26 C 2469.07 2816.99 2965.25 2976.04 2965.25 2976.04" style="stroke-width:152.44;stroke-linejoin:round;stroke-linecap:round;stroke:url(#i696331265-16-g);fill:none;"/></g><g><linearGradient id="i696331265-17-g" gradientUnits="userSpaceOnUse" gradientTransform="matrix(0.292162,0.209264,-0.209264,0.292162,2024.41,2902.33)" x1="-6528" x2="6528" y1="-6528" y2="-6528"><stop offset="0%" stop-color="#25b204" stop-opacity="0.96"/><stop offset="100%" stop-color="#177203" stop-opacity="0.96"/></linearGradient><path d="M 1326 3060 L 1632 3468 1326 3570 M 1632 3774 L 2142 3978" style="stroke-width:102;stroke-linejoin:round;stroke-linecap:round;stroke:url(#i696331265-17-g);fill:none;"/></g><g><linearGradient id="i696331265-18-g" gradientUnits="userSpaceOnUse" gradientTransform="matrix(0.213169,-0.309683,0.304438,0.209559,3946.55,2822.29)" x1="-6528" x2="6528" y1="-6528" y2="-6528"><stop offset="0%" stop-color="#000000"/><stop offset="58.43%" stop-color="#010101"/><stop offset="73.33%" stop-color="#656565"/><stop offset="100%" stop-color="#dbdbdb"/></linearGradient><path d="M 3264 918 L 4692 1326 M 4080 918 L 5100 1224" style="stroke-width:102;stroke-linejoin:round;stroke-linecap:round;stroke:url(#i696331265-18-g);fill:none;"/></g></svg>