<svg width="64" height="64" viewBox="0 0 6528 6528" xmlns="http://www.w3.org/2000/svg">
<path id="shape_0" d="M 3060 3468 C 3060 3468 2244 3774 2244 3774 C 2244 3774 5712 5304 5712 5304 C 5712 5304 6528 5100 6528 4794 C 6528 4488 3060 3468 3060 3468 Z M 3366 6528 C 3366 6528 3774 6528 3774 6528 C 3774 6528 5304 5508 5304 5508 C 5304 5508 4692 5202 4692 5202 C 4692 5202 3366 6528 3366 6528 Z " style="fill:#000000;stroke:none;fill-opacity:0.39;" />
<path id="shape_1" d="M 5406 5100 C 5406 5100 5406 5610 5712 5712 C 6099 5841 6319 6062 5916 6120 C 5202 6222 5304 5916 4590 5814 " style="stroke-width:204;stroke-linejoin:miter;stroke-linecap:butt;stroke:#000000;fill:none;stroke-opacity:0.39;" />
<path id="shape_2" d="M 5304 4794 C 5304 4794 4998 5508 5508 5610 C 5908 5690 6115 5960 5712 6018 C 4998 6120 5100 5508 4386 5406 " style="stroke-width:204;stroke-linejoin:miter;stroke-linecap:butt;stroke:#000000;fill:none;" />
<path id="shape_3" d="M 2244 3468 C 2244 3468 5508 4896 5508 4896 C 5508 4896 5508 1734 5508 1734 C 5508 1734 3876 1326 3876 1326 C 3876 1326 3876 714 3876 714 C 3876 714 2244 306 2244 306 C 2244 306 2244 3468 2244 3468 Z " style="stroke-width:408;stroke-linejoin:miter;stroke-linecap:butt;stroke:#000000;fill:none;" />
<g>
<defs>
<linearGradient id="id1" gradientUnits="userSpaceOnUse" gradientTransform="matrix(0.227732,0.234209,-0.252052,0.245082,5559.7,2223.03)" x1="-6528" x2="6528" y1="-6528" y2="-6528">
<stop offset="0%" stop-color="#ededed" />
<stop offset="100%" stop-color="#a5a5a5" />
</linearGradient>
</defs>
<path id="shape_4" d="M 2244 816 C 2244 816 2244 3468 2244 3468 C 2244 3468 5508 4896 5508 4896 C 5508 4896 5508 1734 5508 1734 C 5508 1734 2244 816 2244 816 Z " style="fill:url(#id1);stroke:none;" />
</g>
<path id="shape_5" d="M 5100 4284 C 5100 4284 2652 3264 2652 3264 C 2652 3264 2448 3366 2448 3366 C 2448 3366 5304 4590 5304 4590 C 5304 4590 5304 1938 5304 1938 C 5304 1938 5100 2142 5100 2142 C 5100 2142 5100 4284 5100 4284 Z " style="fill:#ffffff;stroke:none;" />
<g>
<defs>
<linearGradient id="id2" gradientUnits="userSpaceOnUse" gradientTransform="matrix(0.01168,0.162381,-0.566895,0.040775,5353.46,1969.04)" x1="-6528" x2="6528" y1="-6528" y2="-6528">
<stop offset="0%" stop-color="#919191" />
<stop offset="100%" stop-color="#b5b5b5" />
</linearGradient>
</defs>
<path id="shape_6" d="M 2448 1122 C 2448 1122 2448 3366 2448 3366 C 2448 3366 2652 3264 2652 3264 C 2652 3264 2652 1428 2652 1428 C 2652 1428 5100 2142 5100 2142 C 5100 2142 5304 1938 5304 1938 C 5304 1938 2448 1122 2448 1122 Z " style="fill:url(#id2);stroke:none;" />
</g>
<g>
<defs>
<linearGradient id="id3" gradientUnits="userSpaceOnUse" gradientTransform="matrix(0.175034,0.400959,-0.916481,0.400078,7316.06,1363.41)" x1="-6528" x2="6528" y1="-6528" y2="-6528">
<stop offset="0%" stop-color="#ffffff" />
<stop offset="100%" stop-color="#e9e9e9" />
</linearGradient>
</defs>
<path id="shape_7" d="M 2652 1428 C 2652 1428 2652 3264 2652 3264 C 2652 3264 5304 4386 5304 4386 C 5304 4386 5304 2244 5304 2244 C 5304 2244 2652 1428 2652 1428 Z " style="fill:url(#id3);stroke:none;" />
</g>
<g>
<defs>
<linearGradient id="id4" gradientUnits="userSpaceOnUse" gradientTransform="matrix(0.019165,0.144474,-0.224595,0.029793,3933.05,929.5)" x1="-6528" x2="6528" y1="-6528" y2="-6528">
<stop offset="0%" stop-color="#ffea00" />
<stop offset="100%" stop-color="#ffb830" />
</linearGradient>
</defs>
<path id="shape_8" d="M 2244 306 C 2244 306 2244 918 2244 918 C 2244 918 3876 1402 3876 1402 C 3876 1402 3876 714 3876 714 C 3876 714 2244 306 2244 306 Z " style="fill:url(#id4);stroke:none;" />
</g>
<path id="shape_9" d="M 204 4590 C 204 4590 204 4794 204 4794 C 204 4794 3264 6324 3264 6324 C 3264 6324 3468 6324 3468 6324 C 3468 6324 4488 5610 4488 5610 C 4488 5610 4488 5202 4488 5202 C 4488 5202 1020 3672 1020 3672 C 1020 3672 204 4590 204 4590 Z " style="stroke-width:408;stroke-linejoin:round;stroke-linecap:butt;stroke:#000000;fill:none;" />
<g>
<defs>
<linearGradient id="id5" gradientUnits="userSpaceOnUse" gradientTransform="matrix(0.243998,0.232092,-0.204608,0.215104,2698.17,3974.49)" x1="-6528" x2="6528" y1="-6528" y2="-6528">
<stop offset="0%" stop-color="#c4c4c4" />
<stop offset="100%" stop-color="#a0a0a0" />
</linearGradient>
</defs>
<path id="shape_10" d="M 1020 3672 C 1020 3672 204 4488 204 4488 C 204 4488 204 4590 204 4590 C 204 4590 3264 6120 3264 6120 C 3264 6120 3468 6120 3468 6120 C 3468 6120 4488 5202 4488 5202 C 4488 5202 1020 3672 1020 3672 Z " style="fill:url(#id5);stroke:none;" />
</g>
<g>
<defs>
<linearGradient id="id6" gradientUnits="userSpaceOnUse" gradientTransform="matrix(0.436954,0.035234,-0.027832,0.34516,1530.55,4109.14)" x1="-6528" x2="6528" y1="-6528" y2="-6528">
<stop offset="0%" stop-color="#b4b4b4" />
<stop offset="90.2%" stop-color="#656565" />
<stop offset="100%" stop-color="#8d8d8d" />
</linearGradient>
</defs>
<path id="shape_11" d="M 4488 5610 C 4488 5610 3468 6324 3468 6324 C 3468 6324 3264 6324 3264 6324 C 3264 6324 204 4794 204 4794 C 204 4794 204 4590 204 4590 C 204 4590 3264 6120 3264 6120 C 3264 6120 3468 6120 3468 6120 C 3468 6120 4488 5202 4488 5202 C 4488 5202 4488 5610 4488 5610 Z " style="fill:url(#id6);stroke:none;" />
</g>
<g>
<defs>
<radialGradient id="id7" gradientUnits="userSpaceOnUse" gradientTransform="matrix(0.125,0,0,0.121094,943.5,3569.5)" cx="0" cy="0" r="6528">
<stop offset="0%" stop-color="#cbcbcb" />
<stop offset="100%" stop-color="#ffffff" />
</radialGradient>
</defs>
<path id="shape_12" d="M 816 3901 C 816 3901 1020 3697 1020 3697 C 1020 3697 1326 3850 1326 3850 C 1326 3850 1122 4054 1122 4054 C 1122 4054 816 3901 816 3901 Z " style="fill:url(#id7);stroke:none;" />
</g>
<g>
<defs>
<radialGradient id="id8" gradientUnits="userSpaceOnUse" gradientTransform="matrix(0.125,0,0,0.121094,1351.5,3748.5)" cx="0" cy="0" r="6528">
<stop offset="0%" stop-color="#cbcbcb" />
<stop offset="100%" stop-color="#ffffff" />
</radialGradient>
</defs>
<path id="shape_13" d="M 1224 4080 C 1224 4080 1428 3876 1428 3876 C 1428 3876 1734 4029 1734 4029 C 1734 4029 1530 4233 1530 4233 C 1530 4233 1224 4080 1224 4080 Z " style="fill:url(#id8);stroke:none;" />
</g>
<g>
<defs>
<radialGradient id="id9" gradientUnits="userSpaceOnUse" gradientTransform="matrix(0.125,0,0,0.121094,1759.5,3952.5)" cx="0" cy="0" r="6528">
<stop offset="0%" stop-color="#cbcbcb" />
<stop offset="100%" stop-color="#ffffff" />
</radialGradient>
</defs>
<path id="shape_14" d="M 1632 4284 C 1632 4284 1836 4080 1836 4080 C 1836 4080 2142 4233 2142 4233 C 2142 4233 1938 4437 1938 4437 C 1938 4437 1632 4284 1632 4284 Z " style="fill:url(#id9);stroke:none;" />
</g>
<g>
<defs>
<radialGradient id="id10" gradientUnits="userSpaceOnUse" gradientTransform="matrix(0.125,0,0,0.121094,2167.5,4156.5)" cx="0" cy="0" r="6528">
<stop offset="0%" stop-color="#cbcbcb" />
<stop offset="100%" stop-color="#ffffff" />
</radialGradient>
</defs>
<path id="shape_15" d="M 2040 4488 C 2040 4488 2244 4284 2244 4284 C 2244 4284 2550 4437 2550 4437 C 2550 4437 2346 4641 2346 4641 C 2346 4641 2040 4488 2040 4488 Z " style="fill:url(#id10);stroke:none;" />
</g>
<g>
<defs>
<radialGradient id="id11" gradientUnits="userSpaceOnUse" gradientTransform="matrix(0.125,0,0,0.121094,2587.5,4360.5)" cx="0" cy="0" r="6528">
<stop offset="0%" stop-color="#cbcbcb" />
<stop offset="100%" stop-color="#ffffff" />
</radialGradient>
</defs>
<path id="shape_16" d="M 2460 4692 C 2460 4692 2664 4488 2664 4488 C 2664 4488 2970 4641 2970 4641 C 2970 4641 2766 4845 2766 4845 C 2766 4845 2460 4692 2460 4692 Z " style="fill:url(#id11);stroke:none;" />
</g>
<g>
<defs>
<radialGradient id="id12" gradientUnits="userSpaceOnUse" gradientTransform="matrix(0.125,0,0,0.121094,2995.5,4551.5)" cx="0" cy="0" r="6528">
<stop offset="0%" stop-color="#cbcbcb" />
<stop offset="100%" stop-color="#ffffff" />
</radialGradient>
</defs>
<path id="shape_17" d="M 2868 4883 C 2868 4883 3072 4679 3072 4679 C 3072 4679 3378 4832 3378 4832 C 3378 4832 3174 5036 3174 5036 C 3174 5036 2868 4883 2868 4883 Z " style="fill:url(#id12);stroke:none;" />
</g>
<g>
<defs>
<radialGradient id="id13" gradientUnits="userSpaceOnUse" gradientTransform="matrix(0.125,0,0,0.121094,3429.5,4755.5)" cx="0" cy="0" r="6528">
<stop offset="0%" stop-color="#cbcbcb" />
<stop offset="100%" stop-color="#ffffff" />
</radialGradient>
</defs>
<path id="shape_18" d="M 3302 5087 C 3302 5087 3506 4883 3506 4883 C 3506 4883 3812 5036 3812 5036 C 3812 5036 3608 5240 3608 5240 C 3608 5240 3302 5087 3302 5087 Z " style="fill:url(#id13);stroke:none;" />
</g>
<g>
<defs>
<radialGradient id="id14" gradientUnits="userSpaceOnUse" gradientTransform="matrix(0.125,0,0,0.121094,3901.5,4959.5)" cx="0" cy="0" r="6528">
<stop offset="0%" stop-color="#cbcbcb" />
<stop offset="100%" stop-color="#ffffff" />
</radialGradient>
</defs>
<path id="shape_19" d="M 3774 5291 C 3774 5291 3978 5087 3978 5087 C 3978 5087 4284 5240 4284 5240 C 4284 5240 4080 5444 4080 5444 C 4080 5444 3774 5291 3774 5291 Z " style="fill:url(#id14);stroke:none;" />
</g>
<g>
<defs>
<radialGradient id="id15" gradientUnits="userSpaceOnUse" gradientTransform="matrix(0.125,0,0,0.121094,637.5,3875.5)" cx="0" cy="0" r="6528">
<stop offset="0%" stop-color="#cbcbcb" />
<stop offset="100%" stop-color="#ffffff" />
</radialGradient>
</defs>
<path id="shape_20" d="M 510 4207 C 510 4207 714 4003 714 4003 C 714 4003 1020 4156 1020 4156 C 1020 4156 816 4360 816 4360 C 816 4360 510 4207 510 4207 Z " style="fill:url(#id15);stroke:none;" />
</g>
<g>
<defs>
<radialGradient id="id16" gradientUnits="userSpaceOnUse" gradientTransform="matrix(0.125,0,0,0.121094,1045.5,4079.5)" cx="0" cy="0" r="6528">
<stop offset="0%" stop-color="#cbcbcb" />
<stop offset="100%" stop-color="#ffffff" />
</radialGradient>
</defs>
<path id="shape_21" d="M 918 4411 C 918 4411 1122 4207 1122 4207 C 1122 4207 1428 4360 1428 4360 C 1428 4360 1224 4564 1224 4564 C 1224 4564 918 4411 918 4411 Z " style="fill:url(#id16);stroke:none;" />
</g>
<g>
<defs>
<radialGradient id="id17" gradientUnits="userSpaceOnUse" gradientTransform="matrix(0.125,0,0,0.121094,1453.5,4283.5)" cx="0" cy="0" r="6528">
<stop offset="0%" stop-color="#cbcbcb" />
<stop offset="100%" stop-color="#ffffff" />
</radialGradient>
</defs>
<path id="shape_22" d="M 1326 4615 C 1326 4615 1530 4411 1530 4411 C 1530 4411 1836 4564 1836 4564 C 1836 4564 1632 4768 1632 4768 C 1632 4768 1326 4615 1326 4615 Z " style="fill:url(#id17);stroke:none;" />
</g>
<g>
<defs>
<radialGradient id="id18" gradientUnits="userSpaceOnUse" gradientTransform="matrix(0.125,0,0,0.121094,1861.5,4487.5)" cx="0" cy="0" r="6528">
<stop offset="0%" stop-color="#cbcbcb" />
<stop offset="100%" stop-color="#ffffff" />
</radialGradient>
</defs>
<path id="shape_23" d="M 1734 4819 C 1734 4819 1938 4615 1938 4615 C 1938 4615 2244 4768 2244 4768 C 2244 4768 2040 4972 2040 4972 C 2040 4972 1734 4819 1734 4819 Z " style="fill:url(#id18);stroke:none;" />
</g>
<g>
<defs>
<radialGradient id="id19" gradientUnits="userSpaceOnUse" gradientTransform="matrix(0.125,0,0,0.121094,2281.5,4691.5)" cx="0" cy="0" r="6528">
<stop offset="0%" stop-color="#cbcbcb" />
<stop offset="100%" stop-color="#ffffff" />
</radialGradient>
</defs>
<path id="shape_24" d="M 2154 5023 C 2154 5023 2358 4819 2358 4819 C 2358 4819 2664 4972 2664 4972 C 2664 4972 2460 5176 2460 5176 C 2460 5176 2154 5023 2154 5023 Z " style="fill:url(#id19);stroke:none;" />
</g>
<g>
<defs>
<radialGradient id="id20" gradientUnits="userSpaceOnUse" gradientTransform="matrix(0.125,0,0,0.121094,2702.5,4882.5)" cx="0" cy="0" r="6528">
<stop offset="0%" stop-color="#cbcbcb" />
<stop offset="100%" stop-color="#ffffff" />
</radialGradient>
</defs>
<path id="shape_25" d="M 2575 5214 C 2575 5214 2779 5010 2779 5010 C 2779 5010 3085 5163 3085 5163 C 3085 5163 2881 5367 2881 5367 C 2881 5367 2575 5214 2575 5214 Z " style="fill:url(#id20);stroke:none;" />
</g>
<g>
<defs>
<radialGradient id="id21" gradientUnits="userSpaceOnUse" gradientTransform="matrix(0.133358,0.092167,-0.068848,0.099617,3480.55,5149.5)" cx="0" cy="0" r="6528">
<stop offset="0%" stop-color="#cbcbcb" />
<stop offset="100%" stop-color="#ffffff" />
</radialGradient>
</defs>
<path id="shape_26" d="M 3009 5393 C 3009 5393 3213 5189 3213 5189 C 3213 5189 3927 5546 3927 5546 C 3927 5546 3723 5750 3723 5750 C 3723 5750 3009 5393 3009 5393 Z " style="fill:url(#id21);stroke:none;" />
</g>
<g>
<defs>
<radialGradient id="id22" gradientUnits="userSpaceOnUse" gradientTransform="matrix(0.150808,0.059465,-0.04442,0.112652,525.37,4167.7)" cx="0" cy="0" r="6528">
<stop offset="0%" stop-color="#cbcbcb" />
<stop offset="100%" stop-color="#ffffff" />
</radialGradient>
</defs>
<path id="shape_27" d="M 216 4500 C 216 4500 420 4296 420 4296 C 420 4296 930 4551 930 4551 C 930 4551 726 4755 726 4755 C 726 4755 216 4500 216 4500 Z " style="fill:url(#id22);stroke:none;" />
</g>
<g>
<defs>
<radialGradient id="id23" gradientUnits="userSpaceOnUse" gradientTransform="matrix(0.253582,0.18731,-0.071947,0.097403,1175.15,4437.25)" cx="0" cy="0" r="6528">
<stop offset="0%" stop-color="#cbcbcb" />
<stop offset="100%" stop-color="#ffffff" />
</radialGradient>
</defs>
<path id="shape_28" d="M 816 4794 C 816 4794 1020 4590 1020 4590 C 1020 4590 2142 5151 2142 5151 C 2142 5151 1938 5355 1938 5355 C 1938 5355 816 4794 816 4794 Z " style="fill:url(#id23);stroke:none;" />
</g>
<g>
<defs>
<radialGradient id="id24" gradientUnits="userSpaceOnUse" gradientTransform="matrix(0.150808,0.059465,-0.04442,0.112652,2349.37,5073.7)" cx="0" cy="0" r="6528">
<stop offset="0%" stop-color="#cbcbcb" />
<stop offset="100%" stop-color="#ffffff" />
</radialGradient>
</defs>
<path id="shape_29" d="M 2040 5406 C 2040 5406 2244 5202 2244 5202 C 2244 5202 2754 5457 2754 5457 C 2754 5457 2550 5661 2550 5661 C 2550 5661 2040 5406 2040 5406 Z " style="fill:url(#id24);stroke:none;" />
</g>
<g>
<defs>
<radialGradient id="id25" gradientUnits="userSpaceOnUse" gradientTransform="matrix(0.125,0,0,0.121094,2779.5,5405.5)" cx="0" cy="0" r="6528">
<stop offset="0%" stop-color="#cbcbcb" />
<stop offset="100%" stop-color="#ffffff" />
</radialGradient>
</defs>
<path id="shape_30" d="M 2652 5737 C 2652 5737 2856 5533 2856 5533 C 2856 5533 3162 5686 3162 5686 C 3162 5686 2958 5890 2958 5890 C 2958 5890 2652 5737 2652 5737 Z " style="fill:url(#id25);stroke:none;" />
</g>
<g>
<defs>
<radialGradient id="id26" gradientUnits="userSpaceOnUse" gradientTransform="matrix(0.125,0,0,0.121094,3187.5,5609.5)" cx="0" cy="0" r="6528">
<stop offset="0%" stop-color="#cbcbcb" />
<stop offset="100%" stop-color="#ffffff" />
</radialGradient>
</defs>
<path id="shape_31" d="M 3060 5941 C 3060 5941 3264 5737 3264 5737 C 3264 5737 3570 5890 3570 5890 C 3570 5890 3366 6094 3366 6094 C 3366 6094 3060 5941 3060 5941 Z " style="fill:url(#id26);stroke:none;" />
</g>
</svg>