<svg width="64" height="64" viewBox="0 0 6528 6528" xmlns="http://www.w3.org/2000/svg">
<path id="shape_0" d="M 4488 6528 C 4488 6528 4998 6528 4998 6528 C 4998 6528 6528 4896 6528 4896 C 6528 4896 6120 4692 6120 4692 C 6120 4692 4488 6528 4488 6528 Z M 1938 2040 C 1204 2040 612 2268 612 2550 C 612 2830 1204 3060 1938 3060 C 2669 3060 3264 2830 3264 2550 C 3264 2268 2669 2040 1938 2040 Z " style="fill:#010101;stroke:none;fill-opacity:0.43;" />
<path id="shape_1" d="M 3468 4298.56 C 3468 4298.56 2040 4298.56 2040 3919.71 C 2040 3161.99 3672 2972.57 3672 2404.28 C 3672 2025.43 2550 2025.43 2550 2025.43 " style="stroke-width:408;stroke-linejoin:miter;stroke-linecap:butt;stroke:#010101;fill:none;stroke-opacity:0.43;" />
<path id="shape_2" d="M 3264 4284 C 3264 4284 1836 4284 1836 3876 C 1836 3060 3468 2856 3468 2244 C 3468 1836 2346 1836 2346 1836 M 4998 2244 C 4998 2244 5916 2550 5916 2550 C 5916 2550 5916 4896 5916 4896 C 5916 4896 4488 6324 4488 6324 C 4488 6324 3468 5712 3468 5712 C 3468 5712 3468 3264 3468 3264 C 3468 3264 4998 2244 4998 2244 Z M 1428 204 C 752 204 204 752 204 1428 C 204 2103 752 2652 1428 2652 C 2103 2652 2652 2103 2652 1428 C 2652 752 2103 204 1428 204 Z " style="stroke-width:408;stroke-linejoin:miter;stroke-linecap:butt;stroke:#000000;fill:none;" />
<g>
<defs>
<linearGradient id="id1" gradientUnits="userSpaceOnUse" gradientTransform="matrix(0.139927,0.013993,-0.048197,0.48197,4035.57,3430.17)" x1="-6528" x2="6528" y1="-6528" y2="-6528">
<stop offset="0%" stop-color="#d7d7d7" />
<stop offset="100%" stop-color="#b8b8b8" />
</linearGradient>
</defs>
<path id="shape_3" d="M 4488 3672 C 4488 3672 4488 6324 4488 6324 C 4488 6324 4271 6183 4271 6183 C 4271 6183 4271 5163 4271 5163 C 4271 5163 3672 4896 3672 4896 C 3672 4896 3674 5835 3674 5835 C 3674 5835 3468 5712 3468 5712 C 3468 5712 3468 3264 3468 3264 C 3468 3264 4488 3672 4488 3672 Z " style="fill:url(#id1);stroke:none;" />
</g>
<path id="shape_4" d="M 3823 4963 C 3823 4963 3672 4896 3672 4896 C 3672 4896 3674 5835 3674 5835 C 3674 5835 3806 5912 3806 5912 C 3806 5912 3823 4963 3823 4963 Z " style="fill:#949494;stroke:none;" />
<g>
<defs>
<linearGradient id="id2" gradientUnits="userSpaceOnUse" gradientTransform="matrix(0.139927,0.013993,-0.048197,0.48197,4035.57,3430.17)" x1="-6528" x2="6528" y1="-6528" y2="-6528">
<stop offset="0%" stop-color="#d2d2d2" />
<stop offset="100%" stop-color="#858585" />
</linearGradient>
</defs>
<path id="shape_5" d="M 4119 5096 C 4119 5096 3823 4963 3823 4963 C 3823 4963 3806 5912 3806 5912 C 3806 5912 4118 6094 4118 6094 C 4118 6094 4119 5096 4119 5096 Z " style="fill:url(#id2);stroke:none;" />
</g>
<path id="shape_6" d="M 4271 6183 C 4271 6183 4271 5163 4271 5163 C 4271 5163 4119 5096 4119 5096 C 4119 5096 4118 6094 4118 6094 C 4118 6094 4271 6183 4271 6183 Z " style="fill:#c4c4c4;stroke:none;" />
<g>
<defs>
<linearGradient id="id3" gradientUnits="userSpaceOnUse" gradientTransform="matrix(0.3125,0,0,0.25,4488,2448)" x1="-6528" x2="6528" y1="-6528" y2="-6528">
<stop offset="0%" stop-color="#f4f4f4" />
<stop offset="100%" stop-color="#dbdbdb" />
</linearGradient>
</defs>
<path id="shape_7" d="M 4998 2244 C 4998 2244 5916 2550 5916 2550 C 5916 2550 4488 3672 4488 3672 C 4488 3672 3468 3264 3468 3264 C 3468 3264 4998 2244 4998 2244 Z " style="fill:url(#id3);stroke:none;" />
</g>
<g>
<defs>
<linearGradient id="id4" gradientUnits="userSpaceOnUse" gradientTransform="matrix(0.150679,0.03767,-0.136426,0.5457,5773.46,2763.86)" x1="-6528" x2="6528" y1="-6528" y2="-6528">
<stop offset="0%" stop-color="#5c5c5c" />
<stop offset="100%" stop-color="#838383" />
</linearGradient>
</defs>
<path id="shape_8" d="M 4488 3672 C 4488 3672 5916 2550 5916 2550 C 5916 2550 5916 4896 5916 4896 C 5916 4896 4488 6324 4488 6324 C 4488 6324 4488 3672 4488 3672 Z " style="fill:url(#id4);stroke:none;" />
</g>
<g>
<defs>
<linearGradient id="id5" gradientUnits="userSpaceOnUse" gradientTransform="matrix(0.139927,0.013993,-0.048197,0.48197,4035.57,3430.17)" x1="-6528" x2="6528" y1="-6528" y2="-6528">
<stop offset="0%" stop-color="#d2d2d2" />
<stop offset="100%" stop-color="#858585" />
</linearGradient>
</defs>
<path id="shape_9" d="M 4080 3876 C 4080 3876 4080 4080 4080 4080 C 4080 4080 4284 4131 4284 4131 C 4284 4131 4284 3927 4284 3927 C 4284 3927 4080 3876 4080 3876 Z " style="stroke-width:102;stroke-linejoin:miter;stroke-linecap:butt;stroke:url(#id5);fill:none;" />
</g>
<path id="shape_10" d="M 4080 3876 C 4080 3876 4080 4080 4080 4080 C 4080 4080 4284 4131 4284 4131 C 4284 4131 4284 3927 4284 3927 C 4284 3927 4080 3876 4080 3876 Z " style="fill:#a9ff00;stroke:none;" />
<g>
<defs>
<radialGradient id="id6" gradientUnits="userSpaceOnUse" gradientTransform="matrix(0.25,0,0,0.25,1020,1020)" cx="0" cy="0" r="6528">
<stop offset="4.31%" stop-color="#9eedff" />
<stop offset="14.51%" stop-color="#67ceff" />
<stop offset="100%" stop-color="#0473b3" />
</radialGradient>
</defs>
<path id="shape_11" d="M 1428 204 C 1066 204 742 360 518 608 C 518 608 816 612 816 816 C 816 1020 408 1428 408 1428 C 408 1428 408 1632 408 1632 C 408 1632 612 1632 816 1836 C 1020 2040 816 2244 816 2244 C 816 2244 1047 2591 1047 2591 C 1166 2629 1294 2652 1428 2652 C 1733 2652 2012 2539 2227 2354 C 2227 2354 2040 2244 2040 2244 C 2040 2244 2244 1836 2244 1836 C 2244 1836 1632 1632 1632 1428 C 1632 1224 2040 816 2040 816 C 2040 816 1836 612 1836 612 C 1836 612 1619 816 1619 816 C 1619 816 1428 816 1428 816 C 1428 816 1632 612 1632 612 C 1632 612 1428 408 1428 408 C 1428 408 1773 253 1773 253 C 1664 221 1548 204 1428 204 Z " style="fill:url(#id6);stroke:none;" />
</g>
<g>
<defs>
<radialGradient id="id7" gradientUnits="userSpaceOnUse" gradientTransform="matrix(0.25,0,0,0.25,1020,1020)" cx="0" cy="0" r="6528">
<stop offset="0%" stop-color="#b9ff97" />
<stop offset="74.51%" stop-color="#05d65e" />
<stop offset="100%" stop-color="#049943" />
</radialGradient>
</defs>
<path id="shape_12" d="M 518 608 C 323 824 204 1111 204 1428 C 204 1971 557 2432 1047 2591 C 1047 2591 816 2244 816 2244 C 816 2244 1020 2040 816 1836 C 612 1632 408 1632 408 1632 C 408 1632 408 1428 408 1428 C 408 1428 816 1020 816 816 C 816 612 518 608 518 608 Z M 1428 816 C 1428 816 1670 816 1670 816 C 1670 816 1836 612 1836 612 C 1836 612 2040 816 2040 816 C 2040 816 1632 1224 1632 1428 C 1632 1632 2244 1836 2244 1836 C 2244 1836 2040 2244 2040 2244 C 2040 2244 2227 2354 2227 2354 C 2486 2129 2652 1797 2652 1428 C 2652 872 2281 403 1773 253 C 1773 253 1428 408 1428 408 C 1428 408 1632 612 1632 612 C 1632 612 1428 816 1428 816 Z " style="fill:url(#id7);stroke:none;" />
</g>
</svg>