<svg width="64" height="64" viewBox="0 0 6528 6528" xmlns="http://www.w3.org/2000/svg">
<path id="shape_0" d="M 4982 859 C 4941 797 4889 742 4823 704 C 4797 686 4763 663 4764 663 C 4764 663 3522 45 3522 45 C 3338 -47 3094 -10 2954 130 C 2954 130 2024 1061 2024 1061 C 2021 1061 1956 1148 1956 1148 C 1961 1142 1981 1111 1987 1106 C 1932 1165 1892 1236 1864 1314 C 1846 1344 1832 1377 1826 1412 C 1824 1424 1823 1436 1824 1448 C 1824 1436 1825 1425 1827 1414 C 1827 1414 1625 2525 1625 2525 C 1620 2537 1619 2549 1619 2562 C 1619 2695 1707 2832 1833 2894 C 1835 2896 1837 2895 1840 2896 C 1846 2899 3456 3702 3456 3702 C 3504 3726 3554 3736 3604 3734 C 3608 3734 3616 3735 3617 3735 C 3670 3735 3721 3721 3774 3696 C 3765 3699 3756 3703 3748 3705 C 3763 3701 3778 3695 3792 3688 C 3786 3691 3781 3693 3775 3696 C 3817 3679 3858 3653 3896 3614 C 3896 3614 4908 2602 4908 2602 C 4988 2522 5069 2384 5069 2256 C 5069 2256 5069 1042 5069 1042 C 5063 967 5032 904 4983 859 C 4983 859 4982 859 4982 859 Z " style="fill:#000000;stroke:none;" />
<path id="shape_1" d="M 4837 1001 C 4811 946 4767 901 4713 872 C 4778 926 4786 1006 4732 1071 C 4732 1071 3747 2054 3747 2054 C 3692 2110 3646 2201 3647 2256 C 3647 2256 3647 3471 3647 3471 C 3647 3527 3692 3527 3748 3471 C 3748 3471 4760 2459 4760 2459 C 4816 2403 4862 2313 4862 2256 C 4862 2256 4837 1001 4837 1001 Z " style="fill:#777777;stroke:none;" />
<path id="shape_2" d="M 3646 2258 C 3646 2202 3692 2112 3748 2056 C 3748 2056 3785 2019 3785 2019 C 3709 2089 3578 2110 3478 2069 C 3478 2069 2193 1430 2193 1430 C 2108 1374 2094 1278 2167 1205 C 2167 1205 2164 1204 2164 1204 C 2151 1217 2142 1231 2135 1245 C 2094 1288 2064 1341 2046 1400 C 2045 1400 2045 1401 2045 1401 C 2034 1412 2026 1427 2026 1448 C 2026 1448 1824 2562 1824 2562 C 1824 2617 1869 2686 1926 2713 C 1926 2713 1929 2715 1929 2715 C 1873 2687 1827 2619 1828 2563 C 1828 2563 1828 2562 1828 2562 C 1829 2618 1873 2686 1930 2713 C 1930 2713 3549 3521 3549 3521 C 3571 3531 3591 3534 3608 3531 C 3611 3532 3615 3533 3619 3533 C 3648 3533 3672 3523 3696 3510 C 3670 3518 3652 3506 3652 3472 C 3652 3472 3652 3471 3652 3471 C 3652 3473 3652 3475 3652 3477 C 3652 3474 3653 3472 3653 3470 C 3653 3470 3653 2258 3653 2258 C 3653 2258 3646 2258 3646 2258 Z " style="fill:#a7a7a7;stroke:none;" />
<path id="shape_3" d="M 4673 845 C 4673 845 3431 226 3431 226 C 3326 173 3176 194 3098 273 C 3098 273 2167 1204 2167 1204 C 2087 1283 2109 1390 2215 1442 C 2215 1442 3457 2061 3457 2061 C 3562 2114 3712 2092 3791 2014 C 3791 2014 4721 1083 4721 1083 C 4799 1004 4778 897 4673 845 C 4673 845 4673 845 4673 845 Z " style="fill:#dfdfdf;stroke:none;" />
<path id="shape_4" d="M 3121 562 C 3152 516 3178 479 3178 479 C 3179 479 3146 511 3107 550 C 3107 550 2319 1337 2319 1337 C 2280 1376 2239 1419 2228 1432 C 2228 1432 2228 1432 2231 1446 C 2233 1459 2233 1459 2234 1459 C 2254 1474 2312 1505 2362 1530 C 2362 1530 3420 2059 3420 2059 C 3470 2084 3474 2077 3430 2043 C 3430 2043 2635 1449 2635 1449 C 2591 1416 2580 1351 2612 1305 C 2612 1305 3121 562 3121 562 Z " style="fill:#c8c8c8;stroke:none;" />
<path id="shape_5" d="M 3789 1006 C 3621 922 3482 1011 3379 1077 C 3271 1146 3219 1169 3176 1147 C 3120 1119 3164 1057 3195 1026 C 3277 944 3349 969 3390 982 C 3390 982 3487 875 3487 875 C 3328 803 3185 868 3084 969 C 2934 1119 3014 1213 3089 1250 C 3240 1325 3391 1232 3459 1189 C 3585 1110 3633 1080 3691 1109 C 3735 1131 3757 1185 3685 1257 C 3591 1351 3482 1316 3442 1304 C 3442 1304 3355 1410 3355 1410 C 3603 1503 3745 1371 3800 1316 C 3824 1292 3874 1239 3892 1180 C 3903 1121 3873 1048 3790 1006 C 3790 1006 3789 1006 3789 1006 Z " style="fill:#000000;stroke:none;" />
<path id="shape_6" d="M 4720 1083 C 4720 1083 3790 2013 3790 2013 C 3711 2093 3562 2114 3457 2061 C 3457 2061 2214 1442 2214 1442 C 2109 1390 2088 1284 2166 1205 C 2166 1205 2164 1204 2164 1204 C 2151 1217 2142 1231 2135 1245 C 2094 1288 2063 1342 2045 1400 C 2045 1400 2045 1401 2045 1401 C 2033 1412 2025 1427 2026 1448 C 2026 1448 1823 2562 1823 2562 C 1823 2562 2194 1657 2194 1657 C 2194 1657 3368 2242 3368 2242 C 3551 2334 3658 2349 3893 2113 C 4125 1878 4720 1083 4721 1083 C 4721 1083 4720 1083 4720 1083 Z " style="fill:#ffffff;stroke:none;" />
<path id="shape_7" d="M 3363 2479 C 3322 2416 3270 2361 3204 2323 C 3177 2305 3144 2283 3145 2283 C 3145 2283 1902 1664 1902 1664 C 1719 1572 1475 1609 1335 1749 C 1335 1749 404 2680 404 2680 C 401 2680 337 2768 337 2768 C 342 2761 362 2731 368 2725 C 312 2784 272 2855 244 2933 C 226 2963 213 2996 207 3031 C 205 3043 204 3056 204 3067 C 204 3056 205 3044 207 3033 C 207 3033 6 4145 6 4145 C 0 4157 0 4169 0 4181 C 0 4314 88 4451 214 4514 C 216 4515 218 4514 221 4515 C 226 4518 1836 5321 1837 5321 C 1885 5345 1935 5355 1984 5353 C 1988 5353 1997 5355 1997 5355 C 2051 5355 2102 5341 2154 5315 C 2146 5319 2137 5323 2128 5325 C 2144 5321 2158 5315 2172 5307 C 2167 5310 2161 5312 2156 5315 C 2198 5299 2238 5272 2277 5234 C 2277 5234 3289 4221 3289 4221 C 3368 4142 3449 4004 3450 3876 C 3450 3876 3450 2661 3450 2661 C 3444 2586 3412 2523 3363 2479 C 3363 2479 3363 2479 3363 2479 Z " style="fill:#000000;stroke:none;" />
<path id="shape_8" d="M 3218 2621 C 3192 2565 3148 2520 3094 2492 C 3159 2545 3167 2625 3112 2690 C 3112 2690 2129 3673 2129 3673 C 2073 3730 2028 3820 2028 3876 C 2028 3876 2028 5090 2028 5090 C 2028 5146 2073 5146 2130 5090 C 2130 5090 3142 4078 3142 4078 C 3198 4023 3243 3932 3244 3876 C 3244 3876 3218 2621 3218 2621 Z " style="fill:#777777;stroke:none;" />
<path id="shape_9" d="M 2027 3878 C 2027 3822 2072 3731 2128 3675 C 2128 3675 2165 3639 2165 3639 C 2089 3709 1958 3729 1858 3689 C 1858 3689 574 3049 574 3049 C 488 2993 474 2898 548 2825 C 548 2825 545 2823 545 2823 C 532 2836 523 2850 516 2864 C 474 2908 444 2960 427 3019 C 426 3020 426 3020 426 3021 C 414 3031 406 3046 407 3067 C 407 3067 204 4181 204 4181 C 204 4237 250 4304 306 4333 C 306 4333 309 4334 309 4334 C 254 4306 208 4238 208 4182 C 208 4182 208 4181 208 4181 C 210 4238 254 4305 310 4332 C 310 4332 1930 5140 1930 5140 C 1952 5151 1972 5154 1989 5150 C 1992 5151 1995 5152 1999 5152 C 2028 5152 2053 5142 2077 5129 C 2051 5137 2032 5126 2033 5092 C 2033 5092 2033 5091 2033 5091 C 2033 5092 2032 5094 2033 5096 C 2033 5094 2033 5092 2034 5089 C 2034 5089 2034 3878 2034 3878 C 2034 3878 2027 3878 2027 3878 Z " style="fill:#a7a7a7;stroke:none;" />
<path id="shape_10" d="M 3053 2464 C 3053 2464 1812 1845 1812 1845 C 1706 1792 1557 1814 1478 1893 C 1478 1893 548 2823 548 2823 C 468 2902 489 3009 596 3062 C 596 3062 1837 3680 1837 3680 C 1943 3733 2093 3711 2172 3632 C 2172 3632 3102 2702 3102 2702 C 3180 2623 3159 2517 3054 2464 C 3054 2464 3053 2464 3053 2464 Z " style="fill:#dfdfdf;stroke:none;" />
<path id="shape_11" d="M 1501 2182 C 1533 2136 1559 2098 1559 2098 C 1560 2098 1527 2130 1488 2169 C 1488 2169 700 2957 700 2957 C 660 2996 619 3038 609 3051 C 609 3051 609 3051 612 3065 C 614 3079 614 3079 614 3079 C 635 3093 692 3125 742 3150 C 742 3150 1801 3678 1801 3678 C 1851 3703 1855 3696 1811 3663 C 1811 3663 1016 3069 1016 3069 C 972 3035 961 2970 993 2924 C 993 2924 1501 2182 1501 2182 Z " style="fill:#c8c8c8;stroke:none;" />
<path id="shape_12" d="M 1523 2535 C 1523 2535 1413 2644 1413 2644 C 1413 2644 1898 3185 1898 3185 C 1898 3185 2008 3074 2008 3074 C 2008 3074 1896 2955 1896 2955 C 1896 2955 2101 2751 2101 2751 C 2101 2751 2299 2783 2299 2783 C 2299 2783 2412 2670 2412 2670 C 2412 2670 1523 2535 1523 2535 Z M 1812 2866 C 1812 2866 1627 2670 1627 2670 C 1627 2670 1953 2726 1953 2726 C 1953 2726 1812 2866 1812 2866 Z " style="fill:#000000;stroke:none;" />
<path id="shape_13" d="M 3102 2702 C 3102 2702 2171 3632 2171 3632 C 2092 3712 1942 3733 1837 3680 C 1837 3680 595 3062 595 3062 C 490 3009 469 2903 547 2824 C 547 2824 545 2823 545 2823 C 532 2836 522 2850 515 2864 C 474 2908 444 2960 426 3019 C 426 3020 426 3020 426 3021 C 414 3031 406 3046 407 3067 C 407 3067 204 4181 204 4181 C 204 4181 574 3276 574 3276 C 574 3276 1749 3862 1749 3862 C 1932 3953 2039 3968 2274 3733 C 2506 3498 3102 2702 3102 2702 C 3102 2702 3102 2702 3102 2702 Z " style="fill:#ffffff;stroke:none;" />
<path id="shape_14" d="M 6399 2883 C 6358 2821 6306 2766 6240 2728 C 6214 2710 6180 2688 6181 2688 C 6181 2688 4939 2069 4939 2069 C 4755 1977 4511 2014 4371 2154 C 4371 2154 3441 3085 3441 3085 C 3438 3085 3373 3172 3373 3172 C 3378 3166 3398 3135 3404 3130 C 3349 3189 3309 3260 3281 3338 C 3263 3368 3249 3401 3243 3436 C 3241 3448 3240 3460 3241 3472 C 3241 3460 3242 3449 3244 3438 C 3244 3438 3042 4549 3042 4549 C 3015 4697 3124 4855 3252 4918 C 3254 4919 3256 4919 3259 4920 C 3265 4923 4875 5726 4876 5726 C 4924 5750 4974 5760 5023 5757 C 5027 5758 5036 5759 5036 5759 C 5089 5759 5140 5746 5193 5720 C 5184 5723 5175 5727 5167 5729 C 5182 5725 5197 5719 5211 5712 C 5206 5715 5200 5717 5195 5720 C 5237 5703 5277 5676 5316 5638 C 5316 5638 6328 4626 6328 4626 C 6407 4546 6488 4409 6489 4281 C 6489 4281 6489 3066 6489 3066 C 6480 2991 6449 2928 6399 2883 " style="fill:#000000;stroke:none;" />
<path id="shape_15" d="M 6254 3026 C 6228 2970 6184 2925 6130 2897 C 6195 2950 6203 3030 6148 3095 C 6148 3095 5165 4079 5165 4079 C 5109 4134 5064 4225 5064 4281 C 5064 4281 5064 5496 5064 5496 C 5064 5551 5110 5551 5166 5496 C 5166 5496 6178 4484 6178 4484 C 6234 4427 6280 4337 6280 4281 C 6280 4281 6254 3026 6254 3026 Z " style="fill:#777777;stroke:none;" />
<path id="shape_16" d="M 5063 4283 C 5063 4227 5109 4136 5165 4080 C 5165 4080 5202 4044 5202 4044 C 5126 4114 4995 4134 4894 4093 C 4894 4093 3610 3454 3610 3454 C 3525 3398 3510 3302 3584 3230 C 3584 3230 3581 3228 3581 3228 C 3568 3241 3559 3255 3551 3269 C 3510 3313 3480 3366 3462 3424 C 3462 3424 3462 3425 3462 3425 C 3451 3436 3443 3451 3443 3472 C 3443 3472 3241 4586 3241 4586 C 3241 4641 3286 4709 3342 4738 C 3342 4738 3345 4739 3345 4739 C 3290 4711 3244 4643 3245 4587 C 3245 4587 3245 4586 3245 4586 C 3246 4642 3290 4710 3346 4737 C 3346 4737 4966 5545 4966 5545 C 4988 5555 5008 5558 5025 5555 C 5028 5556 5032 5557 5036 5557 C 5065 5557 5089 5547 5113 5534 C 5087 5542 5069 5531 5069 5497 C 5069 5497 5069 5496 5069 5496 C 5069 5497 5069 5499 5069 5501 C 5069 5499 5070 5497 5070 5494 C 5070 5494 5063 4283 5063 4283 Z " style="fill:#a7a7a7;stroke:none;" />
<path id="shape_17" d="M 5063 4283 C 5063 4227 4995 4134 4894 4093 C 4894 4093 3610 3454 3610 3454 C 3525 3398 3443 3472 3443 3472 C 3443 3472 3251 4500 3251 4500 C 3213 4628 3342 4738 3342 4738 C 3342 4738 4966 5545 4966 5545 C 4988 5555 5008 5558 5025 5555 C 5028 5556 5032 5557 5036 5557 C 5065 5557 5089 5547 5113 5534 C 5087 5542 5069 5531 5069 5497 C 5069 5497 5069 5496 5069 5496 C 5069 5497 5069 5499 5069 5501 C 5069 5499 5070 5497 5070 5494 C 5070 5494 5063 4283 5063 4283 Z " style="fill:#a7a7a7;stroke:none;" />
<path id="shape_18" d="M 6090 2869 C 6090 2869 4848 2250 4848 2250 C 4743 2197 4593 2219 4514 2297 C 4514 2297 3584 3228 3584 3228 C 3504 3307 3526 3414 3632 3466 C 3632 3466 4874 4085 4874 4085 C 4979 4138 5129 4116 5208 4038 C 5208 4038 6139 3107 6139 3107 C 6216 3028 6195 2921 6090 2869 C 6090 2869 6090 2869 6090 2869 Z " style="fill:#dfdfdf;stroke:none;" />
<path id="shape_19" d="M 4590 2448 C 4590 2448 3710 3111 3753 3382 C 3775 3524 4908 4054 4908 4054 C 4908 4054 3991 3559 4029 3315 C 4066 3070 4590 2448 4590 2448 Z " style="fill:#c8c8c8;stroke:none;" />
<path id="shape_20" d="M 5280 3067 C 5280 3067 4989 3358 4989 3358 C 4989 3358 4808 2848 4808 2848 C 4808 2848 4701 2794 4701 2794 C 4701 2794 4326 3169 4326 3169 C 4326 3169 4441 3228 4441 3228 C 4441 3228 4680 2988 4680 2988 C 4680 2988 4856 3479 4856 3479 C 4856 3479 4980 3540 4980 3540 C 4980 3540 5395 3125 5395 3125 C 5395 3125 5280 3067 5280 3067 Z " style="fill:#000000;stroke:none;" />
<path id="shape_21" d="M 4998 4182 C 4896 4182 3774 3570 3672 3468 C 3570 3366 4794 2244 4692 2244 C 4590 2244 3570 3162 3468 3366 C 3366 3570 3264 4692 3264 4692 C 3264 4692 3468 3774 3570 3672 C 3672 3570 4896 4386 4998 4386 C 5100 4386 6222 3060 6222 3060 C 6222 3060 5100 4182 4998 4182 Z " style="fill:#ffffff;stroke:none;" />
</svg>