<?xml version="1.0" encoding="UTF-8"?><svg id="i924414089" width="64" height="64" viewBox="0 0 6528 6528" xmlns="http://www.w3.org/2000/svg"><path d="M 5575.3 2845.49 C 5585.86 2935.18 5653.57 2968.6 5653.57 3136.55 C 5653.57 3232.4 5265.77 3471.59 5316.77 3674.72 C 5395.92 3988.65 5731.83 4066.91 5799.54 4224.32 C 5892.75 4442.4 5490.01 4686.86 5395.92 4729.07 C 5294.79 4773.91 5047.69 4925.16 4688.91 4953.3 C 4397.85 4975.29 4061.05 4975.29 3960.81 4953.3 C 3859.68 4930.44 3343.5 5053.55 3343.5 5053.55 C 3343.5 5053.55 3478.04 5446.62 3164.11 5670.86 C 2955.7 5819.47 2740.26 5919.72 2637.37 5928.51 C 1673.6 6006.77 1572.47 5457.17 1471.35 5143.24 C 1365.83 4814.37 1152.14 4712.36 1022.88 4672.79 C 876.9 4627.94 562.97 4325.44 562.97 4056.36 C 562.97 3921.82 809.19 3584.15 1090.59 3551.61 C 1381.65 3518.19 1045.74 3315.94 1101.14 3204.26" style="stroke-width:358.78;stroke-linejoin:miter;stroke-linecap:butt;stroke:#000000;fill:none;"/><g><linearGradient id="i924414089-1-g" gradientUnits="userSpaceOnUse" gradientTransform="matrix(0.776783,0.525741,-0.492884,0.728237,3088.72,-255.99)" x1="-6528" x2="6528" y1="-6528" y2="-6528"><stop offset="38.43%" stop-color="#ffffff"/><stop offset="57.65%" stop-color="#e4ed06"/><stop offset="100%" stop-color="#aeb404"/></linearGradient><path d="M 1796.71 2912.32 C 1673.6 3002.01 1606.77 2855.16 1516.2 3035.43 C 1459.92 3147.98 2174.83 4004.48 1157.42 3652.74 C 866.35 3551.61 597.27 3910.39 607.82 4089.78 C 625.41 4369.41 911.2 4594.53 1067.72 4649.93 C 1111.69 4665.75 1404.52 4807.33 1516.2 5121.26 C 1596.22 5345.5 1707.02 5950.49 2536.25 5917.08 C 2640.01 5912.68 2884.47 5854.64 3119.26 5670.86 C 3276.67 5546.87 3489.47 4425.69 3489.47 4425.69 C 3489.47 4425.69 3680.29 4953.3 3680.29 4953.3 C 3680.29 4953.3 3736.57 4773.91 3836.82 4795.9 C 3937.94 4818.76 4509.52 4863.61 4700.34 4874.16 C 4993.17 4891.75 5340.52 4680.7 5429.33 4627.94 C 5541.01 4560.23 5731.83 4560.23 5765.25 4257.73 C 5788.99 4045.81 5340.52 3974.58 5294.79 3708.13 C 5227.08 3315.94 5630.7 3304.51 5608.72 3002.01 C 5598.17 2867.47 5629.82 2563.21 5608.72 2430.43" style="stroke-width:0;stroke-linejoin:miter;stroke-linecap:butt;fill:url(#i924414089-1-g);stroke:none;"/></g><path d="M 2561.35 5393.91 C 3213.79 5632.4 3250.77 5513.63 3770.44 5489.31 C 4422.88 5459.38 4837.29 5045.06 4979.54 4726.14 C 5112.3 4427.8 5124.63 4130.39 5063.94 3819.88 C 5056.35 3782.47 5162.57 3705.78 5366.45 3533.7 C 5535.25 3390.6 5741.03 3330.75 5886.13 3211.97 C 6004.67 3113.77 6045.44 2745.28 6018.89 2604.05 C 5970.53 2341.25 5741.03 2007.36 5427.14 1781.03 C 5164.46 1592.11 4567.97 1327.43 4508.23 1327.43 C 4447.54 1327.43 1907.96 5155.42 2561.35 5393.91 Z" style="stroke-width:0;stroke-linejoin:miter;stroke-linecap:butt;fill:#000000;stroke:none;fill-opacity:0.41;"/><path d="M 5526.3 2955.38 C 5520.82 2886.77 5542.82 2299.19 5528.72 2144.38" style="stroke-width:366.94;stroke-linejoin:miter;stroke-linecap:butt;stroke:#000000;fill:none;"/><g><linearGradient id="i924414089-4-g" gradientUnits="userSpaceOnUse" gradientTransform="matrix(0.838309,0.33737,-0.354045,0.879741,1139.57,-957.52)" x1="-6528" x2="6528" y1="-6528" y2="-6528"><stop offset="40%" stop-color="#e8e8e8"/><stop offset="74.12%" stop-color="#636363"/><stop offset="96.86%" stop-color="#292929"/></linearGradient><path d="M 1124.73 3101.32 C 1124.73 3101.32 1124.73 4153 1124.73 4153 C 1124.73 4153 1156.02 4234.55 1221.46 4382.49 C 1306.8 4575.94 1425.34 4683.1 1486.98 4745.69 C 1718.37 4976.13 1889.07 5096.57 2285.46 5289.07 C 2780.48 5530.89 2962.55 5507.18 3143.68 5494.86 C 3324.81 5482.53 3730.69 5417.09 3941.21 5326.06 C 4497.87 5084.24 4651.5 4569.3 4679 4407.14 C 4703.65 4262.05 4655.29 3681.69 4691.33 3596.34 C 4727.36 3511.94 5017.54 3383.92 5090.56 3318.48 C 5211 3209.43 5307.73 3161.06 5465.15 3028.3 C 5564.72 2943.9 5488.85 2327.5 5488.85 2327.5" style="stroke-width:0;stroke-linejoin:miter;stroke-linecap:butt;fill:url(#i924414089-4-g);stroke:none;"/></g><g><linearGradient id="i924414089-5-g" gradientUnits="userSpaceOnUse" gradientTransform="matrix(0.747687,0.280903,-0.433278,1.032311,3724.8,-1342.65)" x1="-6528" x2="6528" y1="-6528" y2="-6528"><stop offset="30.2%" stop-color="#cfff7b"/><stop offset="87.84%" stop-color="#7bc105"/></linearGradient><path d="M 5281.15 2230.32 C 5282.79 1967.7 5189.42 1647.75 4807.6 1374.14 C 4301.57 1013.76 3885.64 1014.96 3520.87 1095.09 C 3264.04 1152.3 2928.48 1292 2754.42 1580.13 C 2520.02 1962.32 2440.58 2092.58 2540.12 2642.91 C 2562.27 2762.32 2797.72 2970.87 2853.62 3159.24 C 2874.75 3231.81 2404.91 2921.85 2302.47 2442.01 C 2272.35 2300 1713.68 2691.91 1602.74 2820.92 C 1522.05 2915.23 1367.3 3126.12 1367.3 3126.12 C 1367.3 3126.12 1421.76 3193.57 1492.95 3333.82 C 1598.86 3544.65 1707.12 3616.35 1884.37 3835.95 C 2090.93 4094.61 2627.43 4394.33 2929.55 4436.45 C 3387.08 4502.12 3746.26 4320.55 4024.33 4159.2 C 4400.89 3942.37 4514.28 3482.46 4469.1 3191.35 C 4445.33 3037.27 4333.32 2701.57 4270.13 2598.99 C 4202.4 2487.04 3804.37 2164.04 3864.77 2145.33 C 3926.89 2125.7 4087.42 2272.49 4147.01 2322.08 C 4206.24 2372.94 4348.33 2775.3 4405.31 2773.52 C 4529.2 2765.67 5280.59 2302.79 5281.15 2230.32 Z" style="stroke-width:0;stroke-linejoin:miter;stroke-linecap:butt;fill:url(#i924414089-5-g);stroke:none;"/></g><g><linearGradient id="i924414089-6-g" gradientUnits="userSpaceOnUse" gradientTransform="matrix(1.38723,0.15831,-0.167329,1.31247,-788.74,-1727.7)" x1="-6528" x2="6528" y1="-6528" y2="-6528"><stop offset="27.06%" stop-color="#7e7e7e"/><stop offset="100%" stop-color="#3b3b3b"/></linearGradient><path d="M 5281.15 2230.32 C 5282.79 1967.7 5189.42 1647.75 4807.6 1374.14 C 4301.57 1013.76 3885.64 1014.96 3520.87 1095.09 C 3264.04 1152.3 2928.48 1292 2754.42 1580.13 C 2520.02 1962.32 2440.58 2092.58 2540.12 2642.91 C 2562.27 2762.32 2797.72 2970.87 2853.62 3159.24 C 2874.75 3231.81 2404.91 2921.85 2302.47 2442.01 C 2272.35 2300 1713.68 2691.91 1602.74 2820.92 C 1522.05 2915.23 1367.3 3126.12 1367.3 3126.12 C 1367.3 3126.12 1421.76 3193.57 1492.95 3333.82 C 1598.86 3544.65 1707.12 3616.35 1884.37 3835.95 C 2090.93 4094.61 2627.43 4394.33 2929.55 4436.45 C 3387.08 4502.12 3746.26 4320.55 4024.33 4159.2 C 4400.89 3942.37 4514.28 3482.46 4469.1 3191.35 C 4445.33 3037.27 4333.32 2701.57 4270.13 2598.99 C 4202.4 2487.04 3804.37 2164.04 3864.77 2145.33 C 3926.89 2125.7 4087.42 2272.49 4147.01 2322.08 C 4206.24 2372.94 4348.33 2775.3 4405.31 2773.52 C 4529.2 2765.67 5280.59 2302.79 5281.15 2230.32 Z" style="stroke-width:426.02;stroke-linejoin:miter;stroke-linecap:butt;stroke:url(#i924414089-6-g);fill:none;"/></g><path d="M 5651.53 2141.06 C 5592.42 2044.6 5429.97 1759.58 5304.7 1606.27 C 5134.55 1400.34 4713.32 988.4 4260.92 902.28 C 3787.37 811.08 3512.96 871.59 3306.81 931.56 C 2956.97 1033.06 2968.62 1117.02 2727.02 1280.34 C 2561.28 1392.4 2423.56 1684.99 2331.81 1815.25 C 2289.3 1875.62 2260.8 2091.63 2207.98 2140.46 C 2196.68 2150.31 2031.95 2240.97 1828.05 2380.36 C 1558.03 2566.13 1033.21 3056.48 1030.43 3153.37 C 1027.88 3262.33 986.29 3487.98 986.29 3487.98" style="stroke-width:183.93;stroke-linejoin:miter;stroke-linecap:butt;stroke:#000000;fill:none;"/><path d="M 3337.56 5386.47 C 3669.02 5417.97 3584.38 5337.4 3924.19 5236.54 C 4072.55 5191.3 4322.03 5059.96 4322.46 4932.68" style="stroke-width:183.47;stroke-linejoin:miter;stroke-linecap:butt;stroke:#000000;fill:none;"/></svg>