<svg width="64" height="64" viewBox="0 0 6528 6528" xmlns="http://www.w3.org/2000/svg">
<path id="shape_0" d="M 4488 6120 C 4488 6120 5304 6120 5304 6120 C 5304 6120 6528 4794 6528 4794 C 6528 4794 5915 4487 5915 4487 C 5915 4487 6120 4284 6120 4284 C 6120 4284 5712 4080 5712 4080 C 5712 4080 4488 6120 4488 6120 Z " style="fill:#010101;stroke:none;fill-opacity:0.49;" />
<path id="shape_1" d="M 3060 510 C 3060 510 3570 204 3570 204 C 3570 204 5100 612 5100 612 C 5100 612 5100 1224 5100 1224 " style="stroke-width:408;stroke-linejoin:miter;stroke-linecap:butt;stroke:#010000;fill:none;" />
<g>
<defs>
<linearGradient id="id1" gradientUnits="userSpaceOnUse" gradientTransform="matrix(0.06851,0.21019,-0.950768,0.309898,6777.62,96.72)" x1="-6528" x2="6528" y1="-6528" y2="-6528">
<stop offset="0.39%" stop-color="#ececec" />
<stop offset="100%" stop-color="#c3c3c3" />
</linearGradient>
</defs>
<path id="shape_2" d="M 3060 510 C 3060 510 3570 204 3570 204 C 3570 204 5100 612 5100 612 C 5100 612 4590 1020 4590 1020 C 4590 1020 3060 510 3060 510 Z " style="fill:url(#id1);stroke:none;" />
</g>
<path id="shape_3" d="M 4590 1020 C 4590 1020 5100 612 5100 612 C 5100 612 5100 1224 5100 1224 C 5100 1224 4590 1020 4590 1020 Z " style="fill:#4b4b4b;stroke:none;" />
<path id="shape_4" d="M 1428 612 C 1428 612 1428 4386 1428 4386 C 1428 4386 4488 5916 4488 5916 C 4488 5916 5508 4896 5508 4896 C 5508 4896 5508 1224 5508 1224 C 5508 1224 2448 204 2448 204 C 2448 204 1428 612 1428 612 Z " style="stroke-width:408;stroke-linejoin:miter;stroke-linecap:butt;stroke:#010000;fill:none;" />
<g>
<defs>
<linearGradient id="id2" gradientUnits="userSpaceOnUse" gradientTransform="matrix(0.347622,0.081512,-0.130454,0.556335,2829.8,273.24)" x1="-6528" x2="6528" y1="-6528" y2="-6528">
<stop offset="0%" stop-color="#ffffff" />
<stop offset="100%" stop-color="#d3d3d3" />
</linearGradient>
</defs>
<path id="shape_5" d="M 1428 612 C 1428 612 4488 1836 4488 1836 C 4488 1836 5508 1224 5508 1224 C 5508 1224 2448 204 2448 204 C 2448 204 1428 612 1428 612 Z " style="fill:url(#id2);stroke:none;" />
</g>
<g>
<defs>
<linearGradient id="id3" gradientUnits="userSpaceOnUse" gradientTransform="matrix(0.290339,0.05198,-0.080863,0.451675,5509.69,2788.05)" x1="-6528" x2="6528" y1="-6528" y2="-6528">
<stop offset="0%" stop-color="#474747" />
<stop offset="100%" stop-color="#a5a0a0" />
</linearGradient>
</defs>
<path id="shape_6" d="M 4488 1836 C 4488 1836 4488 5916 4488 5916 C 4488 5916 5508 4896 5508 4896 C 5508 4896 5508 1224 5508 1224 C 5508 1224 4488 1836 4488 1836 Z " style="fill:url(#id3);stroke:none;" />
</g>
<g>
<defs>
<linearGradient id="id4" gradientUnits="userSpaceOnUse" gradientTransform="matrix(-0.288311,-0.28179,0.320728,-0.32815,1365.03,4453.06)" x1="-6528" x2="6528" y1="-6528" y2="-6528">
<stop offset="0%" stop-color="#909090" />
<stop offset="100%" stop-color="#d4d4d4" />
</linearGradient>
</defs>
<path id="shape_7" d="M 1428 612 C 1428 612 1428 4386 1428 4386 C 1428 4386 4488 5916 4488 5916 C 4488 5916 4488 1836 4488 1836 C 4488 1836 1428 612 1428 612 Z M 4182 2040 C 4182 2040 4182 4692 4182 4692 C 4182 4692 1632 3570 1632 3570 C 1632 3570 1632 1020 1632 1020 C 1632 1020 4182 2040 4182 2040 Z " style="fill:url(#id4);stroke:none;" />
</g>
<g>
<defs>
<radialGradient id="id5" gradientUnits="userSpaceOnUse" gradientTransform="matrix(0.527424,0.062629,-0.058787,0.495068,3036.87,2337.36)" cx="0" cy="0" r="6528">
<stop offset="0%" stop-color="#0593dc" />
<stop offset="100%" stop-color="#00337f" />
</radialGradient>
</defs>
<path id="shape_8" d="M 4182 2040 C 4182 2040 4182 4386 4182 4386 C 4182 4386 1836 3366 1836 3366 C 1836 3366 1841 1108 1841 1108 C 1841 1108 4182 2040 4182 2040 Z " style="fill:url(#id5);stroke:none;" />
</g>
<g>
<defs>
<linearGradient id="id6" gradientUnits="userSpaceOnUse" gradientTransform="matrix(0.077273,0.219273,-0.543732,0.191615,3464.39,3036.34)" x1="-6528" x2="6528" y1="-6528" y2="-6528">
<stop offset="0%" stop-color="#242222" />
<stop offset="100%" stop-color="#9a9a9a" />
</linearGradient>
</defs>
<path id="shape_9" d="M 1833 3368 C 1833 3368 1632 3570 1632 3570 C 1632 3570 1632 1020 1632 1020 C 1632 1020 1841 1108 1841 1108 C 1841 1108 1833 3368 1833 3368 Z " style="fill:url(#id6);stroke:none;" />
</g>
<g>
<defs>
<linearGradient id="id7" gradientUnits="userSpaceOnUse" gradientTransform="matrix(0.301586,0,0,0.523808,2040,2856)" x1="-6528" x2="6528" y1="-6528" y2="-6528">
<stop offset="0%" stop-color="#d4cece" />
<stop offset="34.51%" stop-color="#f3f3f3" />
<stop offset="100%" stop-color="#d9d9d9" />
</linearGradient>
</defs>
<path id="shape_10" d="M 4182 4386 C 4182 4386 4182 4692 4182 4692 C 4182 4692 1632 3570 1632 3570 C 1632 3570 1836 3367 1836 3367 C 1836 3367 4182 4386 4182 4386 Z " style="fill:url(#id7);stroke:none;" />
</g>
<path id="shape_11" d="M 3876 4794 C 3876 4794 3978 4845 3978 4845 " style="stroke-width:204;stroke-linejoin:miter;stroke-linecap:round;stroke:#8dff06;fill:none;" />
<path id="shape_12" d="M 1836 3876 C 1836 3876 1836 4284 1836 4284 C 1836 4284 3672 5202 3672 5202 C 3672 5202 3672 4692 3672 4692 C 3672 4692 1836 3876 1836 3876 Z " style="fill:#4b4b4b;stroke:none;" />
<g>
<defs>
<linearGradient id="id8" gradientUnits="userSpaceOnUse" gradientTransform="matrix(-0.011306,0.075631,-0.154532,-0.023101,3250.17,4699.3)" x1="-6528" x2="6528" y1="-6528" y2="-6528">
<stop offset="0%" stop-color="#cecece" />
<stop offset="100%" stop-color="#666666" />
</linearGradient>
</defs>
<path id="shape_13" d="M 2040 4080 C 2040 4080 2040 4182 2040 4182 C 2040 4182 3468 4896 3468 4896 C 3468 4896 3468 4692 3468 4692 C 3468 4692 2040 4080 2040 4080 Z " style="fill:url(#id8);stroke:none;" />
</g>
</svg>